<svg width="15" height="13" viewBox="0 0 15 13" fill="none" xmlns="http://www.w3.org/2000/svg">
<path d="M4.9375 5.4375C5.19271 5.4375 5.39323 5.51953 5.53906 5.68359C5.70312 5.84766 5.78516 6.05729 5.78516 6.3125C5.78516 6.56771 5.70312 6.77734 5.53906 6.94141C5.39323 7.10547 5.19271 7.1875 4.9375 7.1875C4.68229 7.1875 4.47266 7.10547 4.30859 6.94141C4.14453 6.75911 4.0625 6.54036 4.0625 6.28516C4.0625 6.04818 4.14453 5.84766 4.30859 5.68359C4.47266 5.51953 4.68229 5.4375 4.9375 5.4375ZM8 5.41016C8.25521 5.42839 8.45573 5.51953 8.60156 5.68359C8.76562 5.84766 8.84766 6.04818 8.84766 6.28516C8.84766 6.52214 8.76562 6.72266 8.60156 6.88672C8.4375 7.05078 8.23698 7.13281 8 7.13281C7.76302 7.13281 7.5625 7.05078 7.39844 6.88672C7.23438 6.74089 7.15234 6.54036 7.15234 6.28516C7.15234 6.02995 7.23438 5.82031 7.39844 5.65625C7.54427 5.49219 7.74479 5.41016 8 5.41016ZM11.0625 5.4375C11.3177 5.4375 11.5273 5.51953 11.6914 5.68359C11.8555 5.84766 11.9375 6.05729 11.9375 6.3125C11.9375 6.56771 11.8555 6.77734 11.6914 6.94141C11.5273 7.10547 11.3177 7.1875 11.0625 7.1875C10.8255 7.1875 10.625 7.10547 10.4609 6.94141C10.2969 6.77734 10.2148 6.56771 10.2148 6.3125C10.2148 6.05729 10.2969 5.84766 10.4609 5.68359C10.6068 5.51953 10.8073 5.4375 11.0625 5.4375ZM8 0.597656C9.29427 0.615885 10.4701 0.880208 11.5273 1.39062C12.5664 1.91927 13.3958 2.61198 14.0156 3.46875C14.6354 4.32552 14.9544 5.28255 14.9727 6.33984C14.9544 7.39714 14.6354 8.34505 14.0156 9.18359C13.3958 10.0404 12.5664 10.724 11.5273 11.2344C10.4701 11.7266 9.29427 11.9818 8 12C7.10677 12 6.25911 11.8724 5.45703 11.6172C5.03776 11.9089 4.50911 12.1914 3.87109 12.4648C3.23307 12.7201 2.49479 12.8568 1.65625 12.875C1.36458 12.8568 1.17318 12.7201 1.08203 12.4648C0.972656 12.1914 1.00911 11.9544 1.19141 11.7539C1.22786 11.7357 1.39193 11.5352 1.68359 11.1523C1.97526 10.7695 2.23958 10.2956 2.47656 9.73047C1.54688 8.76432 1.0638 7.61589 1.02734 6.28516C1.04557 5.22786 1.36458 4.27083 1.98438 3.41406C2.60417 2.55729 3.43359 1.8737 4.47266 1.36328C5.52995 0.871094 6.70573 0.615885 8 0.597656ZM8 10.6875C9.60417 10.651 10.9349 10.2227 11.9922 9.40234C13.0495 8.58203 13.5964 7.55208 13.6328 6.3125C13.5964 5.07292 13.0404 4.04297 11.9648 3.22266C10.9076 2.40234 9.57682 1.97396 7.97266 1.9375C6.36849 1.97396 5.03776 2.40234 3.98047 3.22266C2.90495 4.04297 2.34896 5.07292 2.3125 6.3125C2.33073 6.89583 2.44922 7.39714 2.66797 7.81641C2.90495 8.25391 3.15104 8.60026 3.40625 8.85547L3.95312 9.45703L3.67969 10.2227C3.51562 10.6237 3.33333 10.9974 3.13281 11.3438C3.78906 11.1068 4.30859 10.8424 4.69141 10.5508L5.23828 10.168L5.86719 10.3594C6.5599 10.5781 7.27083 10.6875 8 10.6875Z" fill="#999999"/>
</svg>
