<svg width="15" height="15" viewBox="0 0 15 15" fill="none" xmlns="http://www.w3.org/2000/svg">
<path d="M7.87628 3.90625C8.89712 3.92708 9.74087 4.28125 10.4075 4.96875C11.095 5.63542 11.4492 6.47917 11.47 7.5C11.4492 8.52083 11.095 9.36458 10.4075 10.0312C9.74087 10.7188 8.89712 11.0729 7.87628 11.0938C6.85545 11.0729 6.0117 10.7188 5.34503 10.0312C4.65753 9.36458 4.30337 8.52083 4.28253 7.5C4.30337 6.47917 4.65753 5.63542 5.34503 4.96875C6.0117 4.28125 6.85545 3.92708 7.87628 3.90625ZM7.87628 9.84375C8.54295 9.82292 9.09503 9.59375 9.53253 9.15625C9.97003 8.71875 10.1992 8.16667 10.22 7.5C10.1992 6.83333 9.97003 6.28125 9.53253 5.84375C9.09503 5.40625 8.54295 5.17708 7.87628 5.15625C7.20962 5.17708 6.65753 5.40625 6.22003 5.84375C5.78253 6.28125 5.55337 6.83333 5.53253 7.5C5.55337 8.16667 5.78253 8.71875 6.22003 9.15625C6.65753 9.59375 7.20962 9.82292 7.87628 9.84375ZM12.47 3.75C12.4492 3.52083 12.3659 3.32292 12.22 3.15625C12.0534 3.01042 11.8554 2.9375 11.6263 2.9375C11.3763 2.9375 11.1784 3.01042 11.0325 3.15625C10.8659 3.32292 10.7825 3.52083 10.7825 3.75C10.8242 4.27083 11.1054 4.55208 11.6263 4.59375C12.1263 4.55208 12.4075 4.27083 12.47 3.75ZM14.845 4.625V4.59375C14.8659 5.01042 14.8763 5.60417 14.8763 6.375C14.8763 7.125 14.8763 7.875 14.8763 8.625C14.8763 9.375 14.8659 9.95833 14.845 10.375C14.845 11.5208 14.4596 12.5 13.6888 13.3125C12.8763 14.0833 11.9075 14.4583 10.7825 14.4375C10.3659 14.4583 9.77212 14.4792 9.00128 14.5C8.25128 14.5 7.50128 14.5 6.75128 14.5C5.98045 14.4792 5.39712 14.4583 5.00128 14.4375C3.85545 14.4583 2.87628 14.0833 2.06378 13.3125C1.29295 12.5 0.917948 11.5208 0.938782 10.375C0.897115 9.95833 0.876282 9.375 0.876282 8.625C0.876282 7.875 0.876282 7.125 0.876282 6.375C0.876282 5.60417 0.897115 5.01042 0.938782 4.59375C0.917948 3.46875 1.29295 2.5 2.06378 1.6875C2.89712 0.916667 3.87628 0.53125 5.00128 0.53125C5.39712 0.510417 5.98045 0.5 6.75128 0.5C7.50128 0.5 8.25128 0.5 9.00128 0.5C9.77212 0.5 10.3659 0.510417 10.7825 0.53125C11.9075 0.53125 12.8763 0.916667 13.6888 1.6875C14.4596 2.5 14.845 3.47917 14.845 4.625ZM13.345 11.625C13.4909 11.2083 13.5742 10.6458 13.595 9.9375C13.6367 9.22917 13.6471 8.58333 13.6263 8C13.6263 7.8125 13.6263 7.64583 13.6263 7.5C13.6263 7.35417 13.6263 7.1875 13.6263 7C13.6471 6.41667 13.6367 5.77083 13.595 5.0625C13.5742 4.35417 13.4909 3.79167 13.345 3.375C13.0742 2.75 12.6263 2.30208 12.0013 2.03125C11.5846 1.88542 11.0221 1.80208 10.3138 1.78125C9.60545 1.76042 8.95962 1.75 8.37628 1.75C8.18878 1.75 8.02212 1.75 7.87628 1.75C7.73045 1.75 7.56378 1.75 7.37628 1.75C6.79295 1.72917 6.14712 1.73958 5.43878 1.78125C4.75128 1.80208 4.18878 1.88542 3.75128 2.03125C3.12628 2.30208 2.67837 2.75 2.40753 3.375C2.2617 3.79167 2.17837 4.35417 2.15753 5.0625C2.1367 5.77083 2.12628 6.41667 2.12628 7C2.12628 7.1875 2.12628 7.35417 2.12628 7.5C2.12628 7.64583 2.12628 7.8125 2.12628 8C2.12628 8.58333 2.1367 9.22917 2.15753 9.9375C2.17837 10.625 2.2617 11.1875 2.40753 11.625C2.67837 12.25 3.12628 12.6979 3.75128 12.9688C4.18878 13.1146 4.75128 13.1979 5.43878 13.2188C6.14712 13.2396 6.79295 13.25 7.37628 13.25C7.56378 13.25 7.73045 13.25 7.87628 13.25C8.02212 13.25 8.18878 13.25 8.37628 13.25C8.95962 13.25 9.60545 13.2396 10.3138 13.2188C11.0221 13.1979 11.5846 13.1146 12.0013 12.9688C12.6263 12.6979 13.0742 12.25 13.345 11.625Z" fill="black" fill-opacity="0.5"/>
</svg>
