<svg width="15" height="15" viewBox="0 0 15 15" fill="none" xmlns="http://www.w3.org/2000/svg">
<path d="M4.00128 14.5H1.09503V5.15625H4.00128V14.5ZM2.56378 3.875C2.08462 3.85417 1.68878 3.6875 1.37628 3.375C1.06378 3.0625 0.897115 2.66667 0.876282 2.1875C0.917948 1.52083 1.1992 1.03125 1.72003 0.71875C2.24087 0.427083 2.80337 0.427083 3.40753 0.71875C3.9492 1.05208 4.23045 1.54167 4.25128 2.1875C4.23045 2.66667 4.06378 3.0625 3.75128 3.375C3.43878 3.6875 3.04295 3.85417 2.56378 3.875ZM14.8763 14.5H11.97V9.9375C12.0117 9.375 11.9492 8.83333 11.7825 8.3125C11.6159 7.79167 11.1784 7.51042 10.47 7.46875C9.74087 7.48958 9.2617 7.73958 9.03253 8.21875C8.80337 8.69792 8.6992 9.25 8.72003 9.875V14.5H5.81378V5.15625H8.62628V6.4375H8.65753C8.84503 6.04167 9.16795 5.69792 9.62628 5.40625C10.1054 5.09375 10.6992 4.92708 11.4075 4.90625C12.8242 4.94792 13.7721 5.375 14.2513 6.1875C14.7096 7.02083 14.9179 8.08333 14.8763 9.375V14.5Z" fill="black" fill-opacity="0.5"/>
</svg>
