<svg width="880" height="500" viewBox="0 0 880 500" fill="none" xmlns="http://www.w3.org/2000/svg">
<g clip-path="url(#clip0_321_1485)">
<path d="M424.553 7.12648C408.97 24.8004 401.558 45.3249 401.368 69.4602C401.368 76.1116 402.413 81.8129 404.599 86.4689C409.92 97.8714 420.752 103.478 433.105 103.953C453.82 104.808 467.883 93.9756 469.783 72.8809C471.304 55.8722 466.553 37.7232 458.571 23.09C454.675 15.9634 450.304 10.0721 445.363 5.4161C441.657 1.90033 436.526 -2.09055 431.3 1.14016C428.924 2.75551 426.644 4.75095 424.553 7.12648Z" fill="white"/>
<path d="M536.773 17.1986C518.054 30.7866 506.366 50.2659 501.805 72.8809C500.095 81.7178 499.525 88.9394 502.756 97.1112C507.412 108.989 519.764 115.26 532.212 116.21C556.252 118.111 567.465 102.812 569.84 81.2427C572.026 61.8585 569.175 43.1394 559.673 26.3207C557.488 22.4248 555.017 19.0991 552.452 16.3435C547.51 11.1173 541.619 13.7779 536.773 17.1986Z" fill="white"/>
<path d="M307.202 34.1124C296.37 57.2975 295.42 81.1478 304.257 105.663C307.107 113.645 311.383 119.536 318.605 123.337C326.207 127.328 336.754 127.518 344.926 125.332C362.029 120.771 373.622 105.663 369.726 87.6092C364.405 62.9038 350.722 42.7593 328.772 29.4564C326.302 28.0311 323.831 26.7958 321.266 25.8456C314.139 23.185 309.863 28.4112 307.202 34.1124Z" fill="white"/>
<path d="M598.442 105.283C592.36 118.491 595.876 131.414 606.233 140.821C622.672 155.644 646.712 155.549 659.065 135.88C668.472 120.962 673.603 104.523 674.553 86.5639C675.029 78.2021 673.983 70.3154 671.418 62.9037C669.992 58.5328 667.047 54.922 661.916 55.7772C632.174 60.4332 610.794 78.2971 598.442 105.283Z" fill="white"/>
<path d="M236.697 79.0573C228.145 74.4013 219.783 71.3607 211.707 70.1254C204.105 68.8901 200.874 73.5461 199.449 80.1026C193.843 105.473 199.639 129.703 213.607 151.558C233.656 182.725 284.017 158.115 275.085 123.907C273.945 119.441 271 113.645 266.249 106.708C258.267 94.5458 248.385 85.4237 236.697 79.0573Z" fill="white"/>
<path d="M454.2 143.006C450.399 159.54 452.11 175.979 461.041 190.232C462.562 192.607 465.507 195.458 468.548 194.603C470.924 193.938 473.394 192.702 475.865 190.897C487.172 182.915 495.154 172.083 499.81 158.685C503.516 147.947 503.801 137.4 495.439 129.513C490.213 124.477 481.281 122.292 474.249 123.147C462.372 124.477 456.671 131.889 454.2 143.006Z" fill="white"/>
<path d="M412.771 183.295C417.617 170.943 418.852 158.4 416.572 145.572C414.671 134.645 407.164 126.378 396.142 125.428C385.785 124.572 375.047 128.848 370.391 138.445C368.871 141.581 368.301 145.382 368.586 149.753C370.011 168.852 379.513 184.911 395.477 195.838C399.373 198.499 402.793 198.214 405.644 195.078C408.59 191.942 410.87 188.046 412.771 183.295Z" fill="white"/>
<path d="M675.694 174.268C670.087 186.431 672.748 199.354 681.68 209.236C687.761 215.982 696.693 221.494 705.815 222.159C720.068 223.204 731.471 213.322 740.213 203.25C752.756 188.901 762.543 171.418 763.208 152.413C763.398 146.237 762.543 139.586 755.321 138.54C736.792 135.88 719.498 139.11 703.25 148.232C692.607 154.409 680.825 163.056 675.694 174.268Z" fill="white"/>
<path d="M187.191 170.277C168.092 153.934 145.762 145.762 120.962 147.757C115.926 148.137 110.889 150.798 110.509 156.404C110.224 159.92 110.414 163.626 110.984 167.332C114.31 187.096 123.622 204.295 139.016 218.928C148.518 227.955 157.735 234.511 171.513 231.471C182.44 229.095 190.612 222.919 196.123 213.037C205.435 196.408 201.064 182.155 187.191 170.277Z" fill="white"/>
<path d="M528.411 166.097C524.04 177.404 522.615 188.997 524.135 200.684C524.705 204.77 526.986 216.458 532.592 216.838C534.873 217.028 537.248 216.553 539.719 215.507C555.017 209.426 566.229 198.689 573.356 183.39C575.161 179.495 576.302 175.884 576.587 172.653C577.632 161.346 569.175 152.414 558.818 148.993C551.501 146.617 544.755 147.377 538.673 151.273C533.447 154.694 530.597 160.3 528.411 166.097Z" fill="white"/>
<path d="M330.768 215.032C335.804 217.123 342.36 219.308 345.401 212.942C347.016 209.616 348.062 206.005 348.632 202.014C350.627 188.046 348.632 174.648 342.36 161.725C335.709 147.947 321.076 144.622 308.248 151.938C300.456 156.404 296.56 162.866 296.37 171.323C296.275 176.454 298.081 182.155 301.691 188.521C308.438 199.829 318.605 209.901 330.768 215.032Z" fill="white"/>
<path d="M607.754 196.503C595.021 209.141 587.324 225.674 587.989 243.253C588.274 250.76 592.55 252.09 599.107 251.615C613.93 250.665 626.948 244.964 637.97 234.416C643.862 228.715 649.278 221.969 648.993 213.702C648.518 201.159 635.785 189.376 623.337 189.376C617.636 189.471 612.505 191.847 607.754 196.503Z" fill="white"/>
<path d="M250.285 245.914C257.507 249.525 265.488 251.615 274.23 252.185C279.171 252.47 284.017 252.09 284.587 245.724C286.298 228.145 278.221 210.661 266.248 197.928C255.416 186.526 240.118 188.141 229.95 199.924C224.914 205.72 223.204 212.277 224.724 219.498C227.005 229.855 240.688 241.068 250.285 245.914Z" fill="white"/>
<path d="M429.779 216.077C420.847 225.199 416.286 239.643 417.237 252.47C417.807 260.547 421.798 267.579 430.35 269.384C438.901 271.189 447.928 268.624 452.394 260.832C453.725 258.457 454.39 255.131 454.295 251.045C454.01 236.982 448.974 225.484 439.186 216.362C435.861 213.132 432.725 213.037 429.779 216.077Z" fill="white"/>
<path d="M475.199 248.005C473.869 251.235 473.014 254.276 472.539 257.127C470.828 268.719 480.331 276.511 491.353 277.081C510.547 278.126 512.543 254.276 511.212 240.688C510.737 235.272 509.027 230.236 506.271 225.58C502.946 219.973 497.244 223.394 493.253 226.055C484.892 231.661 478.905 238.978 475.199 248.005Z" fill="white"/>
<path d="M368.491 226.15C363.17 235.747 362.695 247.054 364.595 257.887C365.545 263.493 367.256 269.384 371.532 273.09C380.939 281.262 398.233 276.511 402.128 264.538C402.889 262.068 402.984 259.122 402.223 255.606C399.088 240.973 390.631 230.331 376.948 223.489C373.242 221.779 370.486 222.634 368.491 226.15Z" fill="white"/>
<path d="M121.722 246.959C106.423 235.747 90.0799 229.761 70.9806 228.525C63.0939 228.05 52.9267 228.62 46.1802 232.706C41.9993 235.272 42.3794 240.688 43.1395 244.774C47.2254 268.529 61.8586 288.008 81.3379 302.357C93.4056 311.288 109.654 312.619 121.532 303.022C132.079 294.47 139.301 279.837 135.785 266.439C133.884 258.932 129.133 252.471 121.722 246.959Z" fill="white"/>
<path d="M813.094 228.43C793.139 228.81 774.23 234.987 758.267 246.769C743.919 257.316 739.073 273.09 747.624 289.624C751.235 296.75 756.176 302.071 762.353 305.587C776.226 313.569 791.144 308.913 803.117 299.221C809.958 293.614 816.229 286.963 822.026 279.266C829.627 269.099 834.569 257.697 837.039 245.059C838.179 239.358 837.799 234.131 831.623 231.661C825.637 229.38 819.365 228.24 813.094 228.43Z" fill="white"/>
<path d="M521.095 276.986C518.434 289.909 533.162 301.691 545.325 298.08C548.936 297.035 552.166 294.47 555.207 290.384C562.999 279.931 567.275 269.004 566.04 255.986C565.85 254.181 565.374 252.66 564.614 251.425C562.999 248.86 557.298 249.525 554.827 250C541.904 252.28 531.832 258.742 524.61 269.194C522.71 271.95 521.57 274.515 521.095 276.986Z" fill="white"/>
<path d="M349.297 271.095C341.885 260.167 330.483 253.516 317.465 251.235C312.714 250.38 308.343 251.235 307.678 257.031C307.298 260.262 307.393 263.778 308.058 267.579C309.863 278.981 314.804 288.483 322.596 296.275C327.822 301.501 336.374 301.406 342.55 297.986C346.541 295.705 349.487 292.664 351.387 288.673C354.048 282.972 353.383 277.081 349.297 271.095Z" fill="white"/>
<path d="M651.178 284.683C648.517 290.574 646.047 298.176 646.427 304.732C646.712 309.103 651.938 310.338 655.549 310.908C661.06 311.764 665.811 311.669 671.132 310.813C682.915 308.913 692.987 304.542 701.634 297.605C708.761 291.809 713.892 283.162 711.136 273.945C708.191 264.158 700.779 255.511 690.612 253.991C685.196 253.136 680.445 254.086 676.264 256.841C664.481 264.253 656.214 273.565 651.178 284.683Z" fill="white"/>
<path d="M170.087 270.049C166.191 279.171 168.567 288.673 175.789 295.23C181.585 300.646 188.046 304.542 194.983 307.107C205.15 310.813 218.643 313.284 228.715 309.863C232.421 308.628 234.036 305.967 233.561 301.976C231.661 284.588 221.589 270.334 207.906 259.502C202.299 255.036 196.693 253.136 189.567 253.991C180.73 255.036 173.508 262.068 170.087 270.049Z" fill="white"/>
<path d="M567.94 303.117C561.954 311.003 560.718 319.365 567.465 327.062C571.836 332.003 578.867 335.519 585.614 334.188C589.32 333.428 592.36 331.718 594.641 329.057C604.143 318.32 608.514 305.587 607.754 290.764C607.374 282.972 599.392 284.683 594.546 285.728C583.999 287.818 575.162 293.615 567.94 303.117Z" fill="white"/>
<path d="M301.786 303.877C292.664 293.33 280.312 288.198 266.248 287.913C258.647 287.723 258.172 293.71 259.027 299.506C260.832 311.479 266.343 321.551 275.56 329.723C278.316 332.288 281.072 333.808 283.732 334.474C291.999 336.374 299.791 331.623 304.067 324.971C308.723 317.75 307.393 310.338 301.786 303.877Z" fill="white"/>
<path d="M444.793 329.437C450.019 318.32 453.06 298.841 434.911 297.986C420.277 297.32 417.997 313.854 421.513 324.401C423.698 331.053 426.834 336.279 431.015 339.795C434.055 342.455 437.001 340.65 439.187 338.084C441.467 335.424 443.368 332.478 444.793 329.437Z" fill="white"/>
<path d="M477.955 317.56C475.105 324.211 474.154 331.813 475.295 340.27C475.77 344.166 478.24 347.206 482.611 345.971C489.643 343.975 495.629 340.08 500.57 334.283C507.792 325.636 511.022 314.139 498.86 307.868C492.968 304.827 487.647 305.302 482.991 309.388C480.806 311.383 479.19 314.804 477.955 317.56Z" fill="white"/>
<path d="M367.351 326.112C370.677 334.284 377.518 340.08 385.215 344.546C391.296 348.062 397.187 347.491 398.138 339.32C399.278 329.913 397.472 321.076 392.626 312.714C388.065 304.732 377.898 304.447 371.342 309.863C366.02 314.139 364.69 319.555 367.351 326.112Z" fill="white"/>
<path d="M324.686 349.772C329.723 358.514 339.13 364.5 349.487 366.211C352.528 366.686 356.138 367.161 357.089 363.265C359.939 352.242 355.093 341.695 347.777 333.428C336.659 320.886 316.705 335.994 324.686 349.772Z" fill="white"/>
<path d="M515.203 342.74C511.878 348.917 510.737 355.378 511.688 362.125C512.163 365.64 514.253 367.161 517.959 366.686C527.746 365.45 535.823 361.079 542.189 353.668C546.655 348.442 548.366 342.55 544.09 336.279C539.054 328.772 528.791 326.112 522.235 332.763C519.764 335.329 517.389 338.654 515.203 342.74Z" fill="white"/>
<path d="M126.473 343.976C120.486 356.993 124.857 368.586 137.02 375.237C152.318 383.599 170.848 385.785 186.716 380.179C189.947 379.038 193.082 376.948 192.607 373.052C192.322 370.676 191.752 368.491 190.992 366.305C184.911 350.247 172.463 338.464 156.879 331.338C144.242 325.637 131.889 331.908 126.473 343.976Z" fill="white"/>
<path d="M717.313 334.093C703.155 342.645 690.992 355.853 687.476 371.627C686.336 376.948 690.517 379.228 694.698 380.559C702.964 383.219 711.421 383.884 720.068 382.554C729.285 381.129 736.697 378.753 744.584 374.097C755.226 367.826 758.837 356.803 753.896 345.021C746.959 328.867 731.851 325.351 717.313 334.093Z" fill="white"/>
<path d="M860.414 337.134C843.311 330.007 825.447 328.582 806.918 332.858C802.262 333.903 797.415 335.234 793.235 337.609C781.452 344.356 776.131 354.808 777.176 368.776C777.461 372.957 778.411 376.853 780.027 380.559C780.787 382.364 782.212 383.314 784.113 383.314C795.325 383.409 811.193 383.409 831.528 383.124C835.994 383.029 840.365 383.409 844.736 383.789C859.844 385.12 870.867 371.817 877.423 360.224C879.323 356.898 880.654 352.242 878.183 348.822C874.477 343.31 866.876 339.795 860.414 337.134Z" fill="white"/>
<path d="M62.2387 331.528C41.9992 329.912 19.6693 333.428 3.42071 346.731C-0.475145 349.962 -0.665187 354.333 1.23523 358.609C5.22611 367.351 11.8776 374.382 19.1942 380.559C21.4747 382.459 23.8502 383.409 26.2257 383.409C47.7005 383.314 70.6955 383.409 95.3059 383.409C99.2018 383.409 100.342 380.464 101.292 377.328C103.478 370.011 103.478 362.885 101.102 356.043C97.2063 344.451 88.6545 337.514 76.8719 334.283C71.6457 332.763 66.7046 331.813 62.2387 331.528Z" fill="white"/>
<path d="M644.527 355.568C646.237 351.577 647.282 347.967 647.662 344.641C648.042 341.03 646.332 338.655 642.721 337.704C626.568 333.523 591.505 344.451 597.776 366.306C598.727 369.441 600.437 372.387 603.002 375.143C609.844 382.269 619.061 382.364 627.138 376.378C635.31 370.392 641.106 363.455 644.527 355.568Z" fill="white"/>
<path d="M272.615 368.586C276.891 352.623 258.932 343.691 246.294 340.555C239.263 338.845 232.326 339.035 225.58 341.125C221.589 342.36 222.349 347.016 223.014 350.057C225.58 362.03 232.706 372.007 244.489 380.084C249.81 383.789 255.131 384.55 260.262 382.554C266.249 380.179 271 374.667 272.615 368.586Z" fill="white"/>
<path d="M432.345 359.179C425.789 362.79 422.083 373.717 421.228 381.034C421.133 381.889 421.703 382.649 422.463 382.934C423.603 383.219 424.838 383.409 425.979 383.409C432.155 383.409 438.141 383.409 443.843 383.314C445.268 383.314 445.933 382.554 445.933 381.129C445.553 372.957 442.607 366.021 437.001 360.224C435.481 358.704 433.96 358.324 432.345 359.179Z" fill="white"/>
<path d="M575.922 381.224C582.003 369.916 568.89 354.998 557.203 361.554C550.266 365.45 544.755 371.627 540.859 380.179C540.574 380.844 540.479 381.509 540.574 382.174C540.669 382.839 541.239 383.409 541.999 383.409C552.737 383.409 562.904 383.409 572.501 383.409C574.021 383.314 575.162 382.649 575.922 381.224Z" fill="white"/>
<path d="M309.388 360.984C298.365 356.803 287.248 370.201 292.189 380.654C293.044 382.459 294.375 383.314 296.18 383.314C306.442 383.314 316.514 383.314 326.302 383.314C327.062 383.314 327.727 382.744 327.822 381.984C327.917 381.509 327.822 380.939 327.632 380.463C323.926 372.482 317.465 364.025 309.388 360.984Z" fill="white"/>
<path d="M483.371 373.052C479.76 374.762 474.154 378.183 471.874 381.794C471.589 382.269 471.684 382.839 472.159 383.124C472.349 383.219 472.539 383.314 472.729 383.314C480.141 383.314 488.027 383.314 496.294 383.314C500.57 383.314 499.81 375.903 499.335 373.147C498.48 367.731 486.127 371.722 483.371 373.052Z" fill="white"/>
<path d="M395.287 382.459C389.396 375.238 379.418 369.821 369.821 370.962C367.826 371.152 366.401 372.387 366.21 374.477C365.925 377.803 365.545 383.504 370.486 383.504C378.848 383.314 386.925 383.314 394.717 383.504C395.667 383.504 395.857 383.124 395.287 382.459Z" fill="white"/>
<path d="M358.229 420.563C356.138 417.332 361.744 408.59 353.478 408.97C345.686 409.35 337.989 409.35 330.293 409.065C327.822 408.97 326.492 410.205 326.492 412.676C326.587 431.87 326.587 458.761 326.492 493.349C326.492 496.579 328.202 498.005 331.718 497.815C340.08 497.339 347.776 497.339 354.808 497.815C358.324 498.005 360.034 496.294 360.034 492.493C359.939 479 359.369 464.842 360.319 450.874C360.889 442.987 362.79 436.241 370.961 433.39C377.138 431.205 383.694 431.11 390.631 433.105C395.857 434.531 398.042 439.187 397.947 444.508C397.947 446.978 399.468 448.404 402.033 448.404C409.635 448.309 417.237 448.214 424.743 448.024C431.11 447.929 430.635 442.702 430.255 438.141C429.589 429.399 427.784 419.042 420.752 413.626C417.047 410.775 412.296 408.875 406.214 407.83C396.427 406.214 386.83 406.404 377.423 408.59C369.821 410.395 364.31 414.386 360.889 420.563C360.414 421.323 359.464 421.608 358.609 421.228C358.514 420.943 358.324 420.753 358.229 420.563Z" fill="white"/>
<path d="M702.204 470.353C701.824 471.399 701.444 471.399 701.064 470.353C692.987 449.639 686.241 431.585 680.635 416.192C679.399 412.771 678.354 408.685 673.793 408.875C666.381 409.16 658.685 409.16 650.798 408.78C648.518 408.685 646.047 409.35 645.192 411.631C638.255 430.35 631.034 449.734 623.622 469.973C622.862 471.874 622.197 471.874 621.627 469.973C616.02 452.394 610.224 434.055 604.238 414.956C602.717 410.015 601.862 408.78 596.161 408.97C587.799 409.255 579.437 409.255 571.075 408.97C570.6 408.97 570.22 408.97 569.935 408.97C568.7 409.065 567.845 410.015 567.845 411.25C567.845 411.44 567.94 411.726 567.94 411.916C578.487 439.947 588.559 467.218 598.251 493.729C599.202 496.294 601.007 497.624 603.668 497.624C615.925 497.624 628.183 497.624 640.631 497.719C643.196 497.719 644.812 496.484 645.667 493.919C650.798 478.525 655.834 463.797 660.775 449.544C661.725 446.883 662.581 446.883 663.436 449.544L678.544 494.679C679.114 496.389 680.73 497.529 682.535 497.529C696.788 497.529 709.901 497.529 722.064 497.529C724.154 497.529 725.579 496.579 726.245 494.584C735.462 469.498 744.869 444.128 754.466 418.662C755.511 415.906 756.366 413.341 757.031 411.06C757.316 410.015 756.936 409.445 755.891 409.255C754.276 409.065 752.66 408.97 751.045 409.065C743.443 409.35 737.172 409.16 732.136 408.59C727.005 408.02 722.824 408.495 720.543 413.721C718.548 418.282 717.598 423.318 716.077 428.164C711.421 442.227 706.86 456.29 702.204 470.353Z" fill="white"/>
<path d="M132.269 469.878C131.224 467.503 130.179 464.937 129.133 462.277C123.242 446.408 116.971 429.684 110.224 412.01C109.464 410.11 107.944 409.065 105.853 409.065C102.908 408.97 96.0661 409.065 85.4238 409.16C80.1976 409.255 77.347 409.825 75.3516 415.051C68.7951 432.345 61.9536 450.779 54.9221 470.353C54.2569 472.159 53.5918 472.159 53.0216 470.353C46.8453 451.539 40.859 432.535 35.0627 413.341C34.1125 410.3 31.927 408.875 28.5063 408.97C19.4793 409.255 10.4523 409.255 1.4253 408.97C0.665129 408.97 0.190025 409.35 0.0950039 410.11C-0.190059 412.01 0.0950039 414.386 0.855171 416.191C9.59709 439.567 19.2892 465.602 29.9316 494.394C30.7868 496.579 32.3071 497.719 34.5876 497.719C47.1304 497.719 59.7681 497.719 72.596 497.719C74.7814 497.719 76.2067 496.674 76.9669 494.584C82.4781 478.24 87.8943 462.562 93.1205 447.738C93.5006 446.693 93.8806 446.693 94.2607 447.738C99.5819 463.512 104.808 479.19 110.034 494.679C110.699 496.674 112.125 497.719 114.215 497.719C127.518 497.719 140.726 497.719 154.029 497.719C156.975 497.719 157.735 494.774 158.495 492.683C168.092 466.647 177.879 440.422 187.761 414.196C188.236 413.056 188.426 411.915 188.426 410.775C188.426 409.73 187.951 409.255 187.001 409.255H156.879C155.074 409.255 153.554 410.395 152.984 412.01L133.884 469.973C133.314 471.018 132.839 471.113 132.269 469.878Z" fill="white"/>
<path d="M528.126 484.987C528.601 485.082 528.886 485.367 528.886 485.937C529.076 488.502 529.076 491.068 528.791 493.443C528.506 496.294 529.837 497.719 532.877 497.624C540.669 497.434 548.651 497.434 556.728 497.624C559.198 497.719 560.338 496.484 560.338 494.014V412.486C560.338 410.11 559.198 408.97 556.823 408.97C548.176 409.16 539.529 409.16 530.882 408.97C527.461 408.875 526.986 412.105 527.081 414.671C527.271 429.589 527.746 444.128 526.321 458.856C525.466 467.218 520.81 472.064 512.353 473.584C506.081 474.724 499.24 474.914 491.733 474.344C482.611 473.679 475.295 471.399 474.059 461.421C473.584 457.43 473.299 454.865 473.204 453.725C472.824 440.802 472.824 427.499 473.109 413.626C473.109 412.581 472.919 411.345 472.634 410.015C472.539 409.73 472.349 409.54 472.064 409.445C470.734 409.065 469.308 408.875 467.788 408.875C459.331 408.97 450.969 408.97 442.797 408.97C439.662 408.97 439.852 411.06 439.757 413.341C439.567 429.019 439.567 442.702 439.757 454.39C439.852 459.996 440.327 465.792 441.182 471.684C445.743 501.33 479.951 500.665 502.186 499.145C512.543 498.384 521.76 494.489 527.176 485.177C527.366 485.082 527.746 484.891 528.126 484.987Z" fill="white"/>
<path d="M311.383 449.829C311.478 444.793 311.288 439.472 310.813 433.865C309.388 415.051 297.7 407.735 280.217 406.974C266.629 406.404 252.185 406.404 236.792 406.974C229.665 407.26 222.064 408.305 215.507 410.11C203.345 413.341 196.408 421.323 194.793 434.15C194.698 435.196 195.363 436.146 196.408 436.241C197.263 436.336 198.118 436.431 198.879 436.431C207.526 436.431 216.267 436.526 225.104 436.431C226.72 436.431 227.86 435.671 228.43 434.245C229.855 430.73 231.376 429.019 235.367 428.639C245.724 427.404 255.986 427.404 266.058 428.354C276.606 429.399 279.171 435.006 278.221 444.983C278.126 445.648 277.936 446.313 277.651 446.883C277.366 447.358 276.701 447.548 276.226 447.358C276.131 447.358 276.131 447.263 276.131 447.263C272.805 444.698 269.574 442.322 265.108 442.037C249.62 440.897 235.652 440.897 223.109 441.942C218.358 442.322 213.607 442.987 209.046 444.318C194.223 448.499 189.757 463.512 190.707 477.575C191.657 492.493 205.34 498.765 218.453 499.525C229.285 500.19 240.973 500.095 253.516 499.335C263.778 498.67 272.425 495.344 277.841 486.317C278.031 486.032 278.316 485.937 278.601 486.127L278.696 486.222C278.981 486.507 279.171 486.887 279.171 487.362C279.266 489.453 279.266 491.733 279.171 494.204C279.171 496.009 280.597 497.529 282.402 497.624C282.497 497.624 282.497 497.624 282.592 497.624C291.049 497.339 299.506 497.339 307.963 497.624C310.338 497.719 311.478 496.484 311.478 494.014C311.193 481.471 311.193 466.743 311.383 449.829ZM260.642 478.05C251.425 478.715 242.778 478.715 234.702 477.86C230.331 477.385 224.724 475.77 224.629 470.353C224.439 462.942 229.76 461.802 235.557 461.041C247.624 459.521 259.597 459.616 271.285 461.231C274.42 461.707 276.416 463.797 276.986 466.838C278.981 477.005 267.389 477.575 260.642 478.05Z" fill="white"/>
<path d="M879.323 441.087C879.228 436.431 878.943 432.345 878.563 428.829C876.188 408.78 856.898 407.07 841.03 406.784C833.428 406.594 821.836 406.689 806.062 407.07C798.746 407.26 792.284 408.305 785.063 410.015C772.52 413.056 765.298 420.848 763.588 433.39C763.303 435.291 764.063 436.621 766.154 436.621C773.945 436.526 782.022 436.526 790.384 436.716C791.999 436.716 793.615 436.621 795.23 436.431C795.515 436.431 795.8 436.241 796.085 436.051C796.75 435.386 797.13 434.721 797.32 433.865C798.176 430.825 801.026 429.019 804.162 428.734C813.189 427.879 822.881 427.689 833.333 428.354C838.559 428.639 844.451 429.399 845.686 435.481C846.446 439.092 846.731 442.702 846.636 446.408C846.636 447.168 845.971 447.738 845.306 447.738C845.116 447.738 844.926 447.643 844.736 447.643C843.881 447.168 843.025 446.598 842.455 445.933C840.555 443.843 837.324 442.797 834.664 442.512C818.7 441.087 803.022 441.087 787.628 442.702C776.796 443.843 765.013 447.548 761.783 459.236C759.882 465.982 759.407 473.204 760.452 480.806C762.448 496.389 776.986 499.525 790.194 499.81C801.026 500.095 811.859 500 822.596 499.525C827.157 499.335 831.528 498.385 835.614 496.579C840.365 494.489 843.691 491.068 846.351 486.887C846.541 486.602 846.921 486.507 847.206 486.697C847.301 486.792 847.396 486.887 847.491 487.077C848.062 489.263 848.157 491.638 847.872 494.204C847.776 495.249 847.967 496.104 848.442 496.864C848.632 497.149 848.822 497.339 849.202 497.339C850.247 497.624 851.387 497.719 852.433 497.719C860.129 497.719 868.396 497.719 877.043 497.719C878.658 497.719 879.513 496.864 879.513 495.249C879.608 476.625 879.609 458.571 879.323 441.087ZM838.084 476.91C827.442 479 817.465 478.81 806.252 478.145C800.076 477.765 792.094 476.245 793.234 468.168C793.995 462.847 798.936 461.517 803.497 461.041C814.234 459.806 825.447 459.711 837.324 460.756C841.79 461.136 845.306 463.227 845.781 468.073C846.256 473.014 842.55 476.055 838.084 476.91Z" fill="white"/>
</g>
<defs>
<clipPath id="clip0_321_1485">
<rect width="879.703" height="500" fill="white"/>
</clipPath>
</defs>
</svg>
