<svg width="516" height="229" viewBox="0 0 516 229" fill="none" xmlns="http://www.w3.org/2000/svg">
<path d="M247.337 8.31776C238.258 18.62 233.94 30.584 233.829 44.6526C233.829 48.5298 234.438 51.8532 235.712 54.5672C238.812 61.2138 245.122 64.4817 252.319 64.7587C264.387 65.2572 272.58 58.9429 273.687 46.6466C274.572 36.7321 271.805 26.1529 267.155 17.623C264.885 13.4689 262.338 10.0348 259.46 7.32077C257.301 5.27139 254.312 2.94507 251.267 4.82828C249.883 5.76989 248.554 6.93305 247.337 8.31776Z" fill="black" fill-opacity="0.06"/>
<path d="M312.714 14.189C301.808 22.1095 294.999 33.4642 292.342 46.6466C291.346 51.7978 291.014 56.0073 292.896 60.7707C295.608 67.6943 302.805 71.3499 310.056 71.9038C324.062 73.0116 330.594 64.094 331.978 51.5208C333.251 40.2216 331.59 29.31 326.055 19.5063C324.782 17.2353 323.342 15.2967 321.848 13.6905C318.969 10.6441 315.537 12.195 312.714 14.189Z" fill="black" fill-opacity="0.06"/>
<path d="M178.97 24.0481C172.66 37.5629 172.106 51.4654 177.254 65.7557C178.915 70.4083 181.406 73.8424 185.613 76.058C190.042 78.3843 196.186 78.4951 200.947 77.2211C210.911 74.5625 217.665 65.7557 215.395 55.2319C212.295 40.8308 204.324 29.0885 191.536 21.3341C190.097 20.5032 188.658 19.7832 187.163 19.2293C183.011 17.6784 180.52 20.7248 178.97 24.0481Z" fill="black" fill-opacity="0.06"/>
<path d="M348.64 65.5341C345.098 73.2331 347.146 80.766 353.18 86.2495C362.757 94.8901 376.762 94.8347 383.958 83.3692C389.439 74.6732 392.428 65.091 392.982 54.6226C393.259 49.7484 392.65 45.1511 391.155 40.8308C390.325 38.283 388.608 36.1782 385.619 36.6767C368.292 39.3907 355.837 49.8038 348.64 65.5341Z" fill="black" fill-opacity="0.06"/>
<path d="M137.895 50.2469C132.913 47.5328 128.042 45.7604 123.336 45.0404C118.908 44.3203 117.025 47.0343 116.195 50.8562C112.929 65.6449 116.306 79.769 124.443 92.5083C136.124 110.676 165.463 96.3301 160.259 76.3903C159.595 73.787 157.879 70.4083 155.111 66.3649C150.461 59.2752 144.704 53.9579 137.895 50.2469Z" fill="black" fill-opacity="0.06"/>
<path d="M264.608 87.5234C262.394 97.161 263.39 106.743 268.594 115.052C269.479 116.436 271.196 118.098 272.967 117.599C274.351 117.212 275.79 116.492 277.23 115.439C283.817 110.787 288.467 104.472 291.18 96.6625C293.339 90.4036 293.505 84.2555 288.633 79.6582C285.588 76.7226 280.385 75.4487 276.288 75.9472C269.369 76.7226 266.047 81.0429 264.608 87.5234Z" fill="black" fill-opacity="0.06"/>
<path d="M240.472 111.008C243.296 103.808 244.015 96.4963 242.687 89.0189C241.579 82.6492 237.206 77.8304 230.785 77.2765C224.751 76.778 218.495 79.2705 215.783 84.8647C214.897 86.6925 214.565 88.9081 214.731 91.456C215.561 102.589 221.097 111.95 230.397 118.319C232.667 119.87 234.66 119.704 236.32 117.876C238.037 116.048 239.365 113.778 240.472 111.008Z" fill="black" fill-opacity="0.06"/>
<path d="M393.646 105.746C390.38 112.836 391.93 120.369 397.134 126.129C400.676 130.062 405.88 133.274 411.194 133.662C419.498 134.271 426.141 128.511 431.234 122.64C438.541 114.276 444.243 104.085 444.63 93.0068C444.741 89.4066 444.243 85.5294 440.036 84.9201C429.241 83.3692 419.166 85.2524 409.7 90.5697C403.5 94.17 396.635 99.2103 393.646 105.746Z" fill="black" fill-opacity="0.06"/>
<path d="M109.054 103.42C97.9271 93.8931 84.9182 89.1297 70.4699 90.2928C67.536 90.5144 64.602 92.0652 64.3806 95.3332C64.2145 97.3825 64.3252 99.5427 64.6574 101.703C66.5949 113.224 72.0199 123.249 80.9878 131.779C86.5235 137.041 91.8932 140.863 99.92 139.09C106.286 137.705 111.047 134.105 114.258 128.345C119.683 118.652 117.136 110.343 109.054 103.42Z" fill="black" fill-opacity="0.06"/>
<path d="M307.842 100.983C305.296 107.574 304.465 114.331 305.351 121.144C305.683 123.526 307.012 130.339 310.278 130.56C311.606 130.671 312.99 130.394 314.43 129.785C323.342 126.24 329.874 119.981 334.026 111.063C335.078 108.793 335.742 106.688 335.908 104.805C336.517 98.2134 331.59 93.0068 325.556 91.0128C321.294 89.6281 317.364 90.0712 313.821 92.3422C310.776 94.3362 309.115 97.6041 307.842 100.983Z" fill="black" fill-opacity="0.06"/>
<path d="M192.699 129.508C195.633 130.726 199.453 132 201.224 128.289C202.165 126.351 202.774 124.246 203.106 121.92C204.269 113.778 203.106 105.968 199.452 98.4349C195.577 90.4036 187.052 88.465 179.579 92.7299C175.04 95.3332 172.77 99.0996 172.66 104.029C172.604 107.02 173.656 110.343 175.76 114.054C179.69 120.646 185.613 126.517 192.699 129.508Z" fill="black" fill-opacity="0.06"/>
<path d="M354.066 118.707C346.648 126.074 342.164 135.711 342.551 145.958C342.717 150.334 345.208 151.109 349.028 150.832C357.664 150.279 365.248 146.955 371.669 140.807C375.101 137.484 378.257 133.551 378.091 128.732C377.814 121.421 370.396 114.553 363.144 114.553C359.823 114.608 356.833 115.993 354.066 118.707Z" fill="black" fill-opacity="0.06"/>
<path d="M145.811 147.509C150.018 149.614 154.668 150.833 159.761 151.165C162.64 151.331 165.463 151.109 165.795 147.398C166.792 137.152 162.086 126.96 155.111 119.538C148.801 112.891 139.888 113.833 133.965 120.701C131.031 124.08 130.034 127.902 130.92 132.111C132.249 138.149 140.22 144.684 145.811 147.509Z" fill="black" fill-opacity="0.06"/>
<path d="M250.381 130.117C245.178 135.434 242.521 143.854 243.074 151.331C243.406 156.039 245.731 160.138 250.713 161.19C255.696 162.243 260.955 160.747 263.556 156.205C264.331 154.82 264.719 152.882 264.663 150.5C264.497 142.303 261.563 135.601 255.862 130.283C253.924 128.4 252.097 128.345 250.381 130.117Z" fill="black" fill-opacity="0.06"/>
<path d="M276.842 148.728C276.067 150.611 275.569 152.383 275.292 154.045C274.296 160.802 279.831 165.344 286.253 165.677C297.435 166.286 298.597 152.383 297.822 144.463C297.546 141.306 296.549 138.37 294.944 135.656C293.006 132.388 289.685 134.382 287.36 135.933C282.488 139.201 279.001 143.466 276.842 148.728Z" fill="black" fill-opacity="0.06"/>
<path d="M214.676 135.988C211.576 141.583 211.299 148.174 212.406 154.488C212.96 157.756 213.956 161.19 216.447 163.35C221.928 168.114 232.003 165.344 234.272 158.365C234.715 156.925 234.77 155.208 234.328 153.159C232.501 144.629 227.574 138.425 219.603 134.437C217.444 133.44 215.838 133.939 214.676 135.988Z" fill="black" fill-opacity="0.06"/>
<path d="M70.9128 148.118C62.0002 141.583 52.4788 138.093 41.3519 137.373C36.7573 137.096 30.834 137.428 26.9037 139.81C24.4679 141.306 24.6894 144.463 25.1322 146.845C27.5126 160.692 36.0376 172.046 47.3859 180.41C54.4163 185.617 63.8824 186.392 70.802 180.798C76.9467 175.813 81.1539 167.283 79.1056 159.473C77.9985 155.097 75.2306 151.331 70.9128 148.118Z" fill="black" fill-opacity="0.06"/>
<path d="M473.693 137.318C462.068 137.539 451.052 141.14 441.752 148.008C433.393 154.156 430.569 163.35 435.552 172.988C437.655 177.142 440.534 180.244 444.132 182.293C452.214 186.946 460.905 184.232 467.88 178.582C471.866 175.314 475.52 171.437 478.896 166.951C483.325 161.024 486.204 154.377 487.643 147.011C488.307 143.687 488.086 140.641 484.487 139.201C481 137.872 477.346 137.207 473.693 137.318Z" fill="black" fill-opacity="0.06"/>
<path d="M303.58 165.621C302.03 173.154 310.61 180.022 317.696 177.918C319.799 177.308 321.682 175.813 323.453 173.431C327.992 167.338 330.483 160.969 329.764 153.38C329.653 152.328 329.376 151.442 328.933 150.722C327.992 149.226 324.671 149.614 323.232 149.891C315.703 151.22 309.835 154.987 305.628 161.079C304.521 162.686 303.856 164.181 303.58 165.621Z" fill="black" fill-opacity="0.06"/>
<path d="M203.494 162.187C199.176 155.817 192.533 151.94 184.949 150.611C182.181 150.112 179.635 150.611 179.247 153.99C179.026 155.873 179.081 157.922 179.469 160.138C180.52 166.784 183.399 172.323 187.938 176.865C190.983 179.911 195.965 179.856 199.563 177.862C201.888 176.533 203.604 174.76 204.711 172.434C206.261 169.111 205.874 165.677 203.494 162.187Z" fill="black" fill-opacity="0.06"/>
<path d="M379.364 170.108C377.814 173.542 376.375 177.973 376.596 181.795C376.762 184.343 379.807 185.063 381.91 185.395C385.121 185.893 387.889 185.838 390.989 185.34C397.853 184.232 403.721 181.684 408.759 177.641C412.91 174.262 415.9 169.222 414.294 163.849C412.578 158.144 408.26 153.103 402.337 152.217C399.182 151.719 396.414 152.273 393.978 153.879C387.114 158.199 382.298 163.627 379.364 170.108Z" fill="black" fill-opacity="0.06"/>
<path d="M99.0897 161.578C96.82 166.895 98.204 172.434 102.411 176.256C105.788 179.413 109.552 181.684 113.593 183.179C119.517 185.34 127.377 186.78 133.245 184.786C135.404 184.066 136.345 182.515 136.068 180.188C134.961 170.052 129.093 161.744 121.122 155.43C117.856 152.826 114.59 151.719 110.438 152.217C105.29 152.826 101.083 156.925 99.0897 161.578Z" fill="black" fill-opacity="0.06"/>
<path d="M330.871 180.853C327.383 185.45 326.664 190.325 330.594 194.811C333.14 197.691 337.237 199.741 341.167 198.965C343.326 198.522 345.098 197.525 346.426 195.974C351.962 189.715 354.508 182.293 354.066 173.653C353.844 169.111 349.194 170.108 346.371 170.717C340.226 171.936 335.078 175.314 330.871 180.853Z" fill="black" fill-opacity="0.06"/>
<path d="M175.815 181.296C170.501 175.148 163.304 172.157 155.111 171.991C150.683 171.88 150.406 175.37 150.904 178.748C151.956 185.727 155.167 191.598 160.536 196.362C162.142 197.857 163.747 198.744 165.297 199.131C170.113 200.239 174.652 197.47 177.143 193.592C179.856 189.383 179.081 185.063 175.815 181.296Z" fill="black" fill-opacity="0.06"/>
<path d="M259.128 196.196C262.172 189.715 263.944 178.361 253.371 177.862C244.846 177.474 243.517 187.112 245.565 193.26C246.838 197.137 248.665 200.184 251.101 202.233C252.872 203.784 254.588 202.732 255.862 201.236C257.19 199.685 258.297 197.968 259.128 196.196Z" fill="black" fill-opacity="0.06"/>
<path d="M278.447 189.272C276.787 193.149 276.233 197.58 276.897 202.51C277.174 204.781 278.614 206.553 281.16 205.833C285.256 204.67 288.744 202.399 291.622 199.021C295.83 193.98 297.712 187.278 290.626 183.623C287.194 181.85 284.094 182.127 281.381 184.509C280.108 185.672 279.167 187.666 278.447 189.272Z" fill="black" fill-opacity="0.06"/>
<path d="M214.011 194.257C215.949 199.021 219.935 202.399 224.419 205.003C227.962 207.052 231.394 206.72 231.947 201.956C232.612 196.473 231.56 191.322 228.737 186.447C226.079 181.795 220.156 181.629 216.336 184.786C213.236 187.278 212.461 190.435 214.011 194.257Z" fill="black" fill-opacity="0.06"/>
<path d="M189.156 208.049C192.09 213.145 197.57 216.634 203.604 217.631C205.376 217.908 207.479 218.185 208.033 215.914C209.694 209.489 206.87 203.341 202.608 198.522C196.131 191.211 184.506 200.018 189.156 208.049Z" fill="black" fill-opacity="0.06"/>
<path d="M300.148 203.95C298.21 207.55 297.546 211.317 298.099 215.249C298.376 217.299 299.594 218.185 301.753 217.908C307.455 217.188 312.16 214.64 315.869 210.32C318.471 207.273 319.467 203.839 316.976 200.184C314.042 195.808 308.064 194.257 304.244 198.134C302.805 199.63 301.421 201.568 300.148 203.95Z" fill="black" fill-opacity="0.06"/>
<path d="M73.6806 204.67C70.1931 212.258 72.7395 219.016 79.8253 222.893C88.7378 227.767 99.5325 229.041 108.777 225.773C110.659 225.109 112.486 223.89 112.209 221.619C112.043 220.234 111.711 218.96 111.268 217.686C107.725 208.326 100.474 201.458 91.395 197.303C84.0325 193.98 76.836 197.636 73.6806 204.67Z" fill="black" fill-opacity="0.06"/>
<path d="M417.893 198.91C409.644 203.895 402.559 211.594 400.51 220.788C399.846 223.89 402.282 225.219 404.717 225.995C409.534 227.546 414.46 227.933 419.498 227.158C424.868 226.327 429.185 224.942 433.78 222.228C439.98 218.573 442.084 212.148 439.205 205.279C435.164 195.863 426.362 193.814 417.893 198.91Z" fill="black" fill-opacity="0.06"/>
<path d="M501.261 200.682C491.296 196.528 480.889 195.697 470.095 198.19C467.382 198.799 464.559 199.574 462.123 200.959C455.259 204.892 452.159 210.984 452.768 219.127C452.934 221.564 453.487 223.835 454.428 225.995C454.871 227.047 455.702 227.601 456.809 227.601C463.341 227.656 472.586 227.656 484.432 227.49C487.034 227.435 489.58 227.656 492.127 227.878C500.929 228.653 507.35 220.899 511.17 214.142C512.277 212.203 513.052 209.489 511.613 207.495C509.454 204.282 505.025 202.233 501.261 200.682Z" fill="black" fill-opacity="0.06"/>
<path d="M36.2591 197.414C24.468 196.473 11.459 198.522 1.99288 206.276C-0.276774 208.16 -0.387489 210.708 0.719658 213.2C3.04467 218.296 6.91968 222.395 11.1822 225.995C12.5108 227.103 13.8947 227.656 15.2786 227.656C27.7894 227.601 41.1859 227.656 55.5234 227.656C57.7931 227.656 58.4574 225.939 59.0109 224.112C60.2842 219.847 60.2842 215.693 58.9002 211.705C56.6306 204.947 51.6484 200.904 44.7841 199.021C41.7394 198.134 38.8609 197.58 36.2591 197.414Z" fill="black" fill-opacity="0.06"/>
<path d="M375.489 211.428C376.485 209.101 377.094 206.997 377.316 205.058C377.537 202.953 376.541 201.568 374.437 201.015C365.026 198.577 344.599 204.947 348.253 217.686C348.807 219.514 349.803 221.231 351.298 222.838C355.283 226.992 360.653 227.047 365.358 223.558C370.119 220.068 373.496 216.025 375.489 211.428Z" fill="black" fill-opacity="0.06"/>
<path d="M158.82 219.016C161.311 209.711 150.849 204.504 143.486 202.676C139.39 201.679 135.349 201.79 131.418 203.009C129.093 203.729 129.536 206.443 129.924 208.215C131.418 215.194 135.57 221.01 142.434 225.718C145.534 227.878 148.634 228.321 151.624 227.158C155.111 225.773 157.879 222.561 158.82 219.016Z" fill="black" fill-opacity="0.06"/>
<path d="M251.876 213.532C248.056 215.637 245.897 222.007 245.399 226.272C245.344 226.77 245.676 227.213 246.119 227.379C246.783 227.546 247.503 227.656 248.167 227.656C251.765 227.656 255.253 227.656 258.574 227.601C259.405 227.601 259.792 227.158 259.792 226.327C259.571 221.564 257.855 217.52 254.588 214.142C253.703 213.255 252.817 213.034 251.876 213.532Z" fill="black" fill-opacity="0.06"/>
<path d="M335.521 226.383C339.064 219.791 331.424 211.095 324.615 214.917C320.574 217.188 317.364 220.788 315.094 225.773C314.928 226.161 314.873 226.549 314.928 226.936C314.983 227.324 315.315 227.656 315.758 227.656C322.014 227.656 327.937 227.656 333.528 227.656C334.414 227.601 335.078 227.213 335.521 226.383Z" fill="black" fill-opacity="0.06"/>
<path d="M180.244 214.585C173.822 212.148 167.345 219.957 170.224 226.05C170.722 227.103 171.497 227.601 172.549 227.601C178.527 227.601 184.395 227.601 190.097 227.601C190.54 227.601 190.927 227.269 190.983 226.826C191.038 226.549 190.983 226.216 190.872 225.939C188.713 221.287 184.949 216.357 180.244 214.585Z" fill="black" fill-opacity="0.06"/>
<path d="M281.603 221.619C279.499 222.616 276.233 224.61 274.905 226.715C274.739 226.992 274.794 227.324 275.071 227.49C275.181 227.546 275.292 227.601 275.403 227.601C279.721 227.601 284.315 227.601 289.131 227.601C291.622 227.601 291.18 223.281 290.903 221.674C290.405 218.517 283.208 220.844 281.603 221.619Z" fill="black" fill-opacity="0.06"/>
<path d="M230.287 227.103C226.854 222.893 221.042 219.736 215.451 220.4C214.288 220.511 213.458 221.231 213.347 222.45C213.181 224.388 212.96 227.712 215.838 227.712C220.71 227.601 225.415 227.601 229.954 227.712C230.508 227.712 230.619 227.49 230.287 227.103Z" fill="black" fill-opacity="0.06"/>
</svg>
