<svg width="71" height="70" viewBox="0 0 71 70" fill="none" xmlns="http://www.w3.org/2000/svg">
<rect x="0.5" width="70" height="70" rx="35" fill="#E96137"/>
<path d="M25.6875 23.625C26.306 23.6576 26.6966 23.9831 26.8594 24.6016L26.9082 25.1875H47.4648C47.9857 25.2201 48.3926 25.4316 48.6855 25.8223C48.9785 26.2129 49.0762 26.6686 48.9785 27.1895L46.3418 36.5645C46.0814 37.2806 45.5768 37.6549 44.8281 37.6875H29.3496L29.7891 40.0312H44.8281C45.5443 40.0964 45.9349 40.487 46 41.2031C45.9349 41.9193 45.5443 42.3099 44.8281 42.375H28.7637C28.1777 42.3424 27.8034 42.0332 27.6406 41.4473L24.7109 25.9688H22.1719C21.4557 25.9036 21.0651 25.513 21 24.7969C21.0651 24.0807 21.4557 23.6901 22.1719 23.625H25.6875ZM27.25 46.2812C27.2826 45.6302 27.5104 45.0768 27.9336 44.6211C28.3893 44.1979 28.9427 43.9701 29.5938 43.9375C30.2448 43.9701 30.7982 44.1979 31.2539 44.6211C31.6771 45.0768 31.9049 45.6302 31.9375 46.2812C31.9049 46.9323 31.6771 47.4857 31.2539 47.9414C30.7982 48.3646 30.2448 48.5924 29.5938 48.625C28.9427 48.5924 28.3893 48.3646 27.9336 47.9414C27.5104 47.4857 27.2826 46.9323 27.25 46.2812ZM46 46.2812C45.9674 46.9323 45.7396 47.4857 45.3164 47.9414C44.8607 48.3646 44.3073 48.5924 43.6562 48.625C43.0052 48.5924 42.4518 48.3646 41.9961 47.9414C41.5729 47.4857 41.3451 46.9323 41.3125 46.2812C41.3451 45.6302 41.5729 45.0768 41.9961 44.6211C42.4518 44.1979 43.0052 43.9701 43.6562 43.9375C44.3073 43.9701 44.8607 44.1979 45.3164 44.6211C45.7396 45.0768 45.9674 45.6302 46 46.2812Z" fill="white"/>
</svg>
