<svg width="529" height="367" viewBox="0 0 529 367" fill="none" xmlns="http://www.w3.org/2000/svg">
<g clip-path="url(#clip0_321_2319)">
<path d="M343.039 162.359C343.039 162.359 356.323 222.187 357.024 227.337C357.726 232.487 353.069 250.769 353.805 254.355C354.734 258.862 357.024 260.655 358.359 261.044C368.12 263.843 441.174 242.863 441.174 242.863L428.583 164.135L420.876 154.419L420.175 143.189L404.279 122.844L370.613 114.387L365.238 127.021L349.85 145.532L343.039 162.359Z" fill="#455A64"/>
<path d="M373.444 115.952C373.689 116.696 415.172 154.749 415.172 154.749L409.088 138.581L406.215 130.97L406.062 116.434L372.937 104.519L373.444 115.952Z" fill="#FFBE9D"/>
<path d="M444.901 240.622L478.001 230.593L463.999 224.411L444.901 237.392V240.622Z" fill="#FFBE9D"/>
<path d="M490.576 205.334L488.801 213.173C488.801 213.173 490.331 219.025 489.824 219.819C489.316 220.614 487.381 220.665 487.381 220.665C487.381 220.665 489.443 225.045 487.381 226.17C486.255 226.809 485.058 227.314 483.815 227.675C483.815 227.675 480.807 230.305 477.993 230.872C475.179 231.438 463.348 225.231 463.348 225.231L481.094 212.902L483.257 212.64L484.762 210.213L490.576 205.334Z" fill="#FFBE9D"/>
<path d="M481.677 225.418C481.238 224.283 480.646 223.214 479.92 222.238C479.113 221.202 478.122 220.324 476.996 219.65C476.643 219.458 476.314 219.225 476.015 218.957C475.666 218.654 475.45 218.226 475.416 217.765C475.441 217.287 475.619 216.831 475.924 216.463C476.228 216.094 476.642 215.833 477.106 215.718C478.718 215.227 480.437 215.212 482.058 215.676C483.377 216.04 484.587 216.723 485.581 217.663C486.238 218.3 486.779 219.047 487.179 219.87C487.34 220.161 487.457 220.475 487.525 220.8C487.335 220.533 487.168 220.25 487.026 219.955C486.574 219.183 486.004 218.487 485.336 217.892C484.367 217.029 483.21 216.406 481.956 216.073C480.419 215.65 478.793 215.67 477.266 216.133C476.891 216.257 476.553 216.475 476.286 216.767C476.041 217.035 475.903 217.384 475.897 217.748C475.897 218.467 476.641 218.923 477.258 219.304C478.413 220.017 479.421 220.948 480.224 222.043C480.764 222.778 481.194 223.587 481.5 224.445C481.612 224.757 481.671 225.086 481.677 225.418Z" fill="#EB996E"/>
<path d="M475.542 229.079C475.542 229.079 475.61 228.732 475.644 228.123C475.698 227.246 475.518 226.37 475.12 225.587C474.859 225.056 474.498 224.582 474.055 224.191C473.599 223.752 472.939 223.515 472.314 223.007C471.982 222.74 471.749 222.367 471.655 221.95C471.561 221.518 471.599 221.067 471.765 220.657C471.952 220.251 472.224 219.89 472.562 219.599C472.9 219.307 473.297 219.091 473.725 218.965C474.563 218.693 475.462 218.673 476.311 218.906C477.088 219.113 477.817 219.469 478.458 219.955C479.512 220.799 480.35 221.883 480.9 223.117C481.283 223.924 481.605 224.757 481.863 225.612C481.98 225.918 482.062 226.235 482.108 226.559C482.024 226.559 481.618 225.24 480.629 223.253C480.06 222.095 479.237 221.08 478.221 220.285C477.615 219.804 476.905 219.471 476.148 219.314C475.391 219.157 474.607 219.179 473.861 219.38C473.491 219.49 473.149 219.677 472.858 219.929C472.567 220.181 472.332 220.493 472.17 220.843C472.03 221.16 471.994 221.514 472.069 221.853C472.143 222.193 472.324 222.499 472.584 222.728C473.108 223.168 473.81 223.456 474.275 223.946C474.74 224.377 475.114 224.897 475.373 225.477C475.764 226.307 475.91 227.23 475.796 228.14C475.765 228.383 475.708 228.621 475.627 228.851C475.593 229.011 475.551 229.088 475.542 229.079Z" fill="#EB996E"/>
<path d="M395.288 246.372C395.112 246.205 394.964 246.011 394.849 245.797C394.513 245.244 394.23 244.661 394.004 244.055C393.222 242.026 393.026 239.819 393.437 237.684C393.847 235.549 394.849 233.573 396.327 231.98C396.769 231.502 397.256 231.069 397.781 230.686C397.966 230.53 398.174 230.404 398.398 230.314C398.448 230.381 397.603 230.956 396.564 232.191C395.192 233.781 394.26 235.702 393.86 237.764C393.459 239.826 393.605 241.957 394.282 243.945C394.789 245.476 395.356 246.33 395.288 246.372Z" fill="#EB996E"/>
<path d="M363.033 48.8685C356.002 45.6467 347.205 48.6064 342.134 54.4496C337.064 60.2929 335.239 68.377 335.323 76.1145C335.408 83.8519 337.233 91.4541 338.611 99.0647C339.169 101.404 339.284 103.828 338.949 106.21C338.475 108.569 336.963 110.853 334.681 111.588C336.423 112.968 338.57 113.738 340.791 113.778C338.163 113.922 336.768 117.508 338.095 119.782C339.422 122.057 342.447 122.852 345.016 122.319C347.585 121.787 349.799 120.188 351.878 118.573C353.957 116.958 356.044 115.258 358.537 114.43C361.689 113.381 365.551 113.669 367.832 111.225C369.362 109.533 369.632 107.039 369.142 104.84C368.522 102.665 367.637 100.575 366.506 98.6165C362.81 91.1073 360.706 82.9148 360.325 74.5532C359.944 66.1917 361.295 57.8416 364.292 50.027" fill="#263238"/>
<path d="M341.061 122.091C341.061 122.091 341.061 122.04 341.205 121.947L341.67 121.567C341.873 121.398 342.118 121.186 342.396 120.924C342.675 120.662 343.005 120.366 343.351 120.002C345.303 117.974 346.751 115.515 347.577 112.823C348.128 110.964 348.446 109.044 348.523 107.107C348.585 104.878 348.454 102.649 348.134 100.443C347.501 95.7583 346.047 90.7606 344.754 85.4501C343.461 80.1396 342.582 74.9221 342.946 70.1867C343.084 67.9313 343.533 65.7059 344.281 63.5739C344.96 61.7109 345.896 59.952 347.061 58.3479C348.718 56.012 350.971 54.1635 353.585 52.9952C353.988 52.8057 354.407 52.6502 354.836 52.5301C355.142 52.4147 355.459 52.3297 355.782 52.2764L356.374 52.158C356.441 52.1465 356.509 52.1465 356.576 52.158C355.578 52.4235 354.601 52.7627 353.652 53.1727C351.108 54.3835 348.924 56.2372 347.315 58.5509C346.188 60.1272 345.283 61.8516 344.627 63.6754C343.91 65.7785 343.478 67.9685 343.343 70.1867C343.013 74.8883 343.884 80.0635 345.177 85.3487C346.47 90.6338 347.932 95.6653 348.557 100.384C348.877 102.624 348.996 104.888 348.912 107.149C348.818 109.115 348.478 111.061 347.898 112.941C347.033 115.667 345.516 118.141 343.478 120.146C342.744 120.879 341.934 121.531 341.061 122.091Z" fill="#455A64"/>
<path d="M348.472 121.262C348.604 121.051 348.748 120.848 348.903 120.653C349.047 120.45 349.25 120.222 349.444 119.918L350.112 118.878C351.439 116.612 352.346 114.126 352.79 111.538C353.423 107.693 353.423 103.771 352.79 99.9272C352.148 95.5722 350.771 90.9128 349.41 85.9998C348.05 81.0867 347.044 76.2836 347.01 71.8271C346.938 67.877 347.716 63.9576 349.292 60.3351C350.36 57.8959 351.963 55.7284 353.982 53.993L354.971 53.2319C355.266 53.0205 355.537 52.8852 355.74 52.7499C355.947 52.6077 356.168 52.4859 356.399 52.3863C356.205 52.5452 356.002 52.692 355.79 52.826C355.596 52.9698 355.334 53.122 355.047 53.3418L354.092 54.1198C352.145 55.8829 350.603 58.0464 349.571 60.462C348.059 64.0528 347.325 67.9233 347.416 71.8187C347.475 76.2159 348.523 80.9768 349.833 85.8814C351.143 90.786 352.529 95.4707 353.154 99.868C353.77 103.756 353.736 107.72 353.052 111.597C352.576 114.211 351.613 116.712 350.213 118.971L349.512 119.994C349.3 120.29 349.089 120.51 348.937 120.704C348.8 120.904 348.644 121.091 348.472 121.262Z" fill="#455A64"/>
<path d="M365.779 50.9065C365.959 50.8245 366.121 50.7065 366.255 50.5596C366.388 50.4127 366.49 50.2401 366.554 50.0524C366.618 49.8646 366.643 49.6658 366.627 49.468C366.612 49.2703 366.556 49.0778 366.463 48.9024C366.253 48.5588 365.953 48.279 365.596 48.0928C365.238 47.9066 364.837 47.8211 364.435 47.8453C363.631 47.9068 362.854 48.1621 362.171 48.5895C358.528 50.6274 355.976 54.2044 354.134 57.959C353.086 60.1069 352.207 62.4915 352.588 64.8508C352.968 67.2101 355.038 69.4425 357.421 69.2311C358.113 69.131 358.776 68.8866 359.367 68.5136C359.958 68.1407 360.464 67.6476 360.852 67.0663C361.606 65.8944 362.176 64.614 362.542 63.2695C364.094 58.6056 365.378 53.8567 366.387 49.0461" fill="#E96137"/>
<path d="M372.091 103.563C367.876 101.502 364.436 98.1362 362.28 93.9655C360.145 89.8135 358.774 85.3106 358.233 80.6724C357.016 72.0724 357.624 62.9143 361.613 55.253C363.557 51.5283 366.239 48.2384 369.494 45.5833C372.749 42.9282 376.51 40.9635 380.547 39.8086C384.585 38.6537 388.815 38.3329 392.981 38.8655C397.146 39.3981 401.16 40.7731 404.778 42.9069" fill="#263238"/>
<path d="M419.989 65.5695C420.723 62.4142 420.693 59.1288 419.899 55.9879C419.105 52.8469 417.571 49.9419 415.425 47.5155C412.172 43.8963 407.676 41.5962 403.003 40.2009C396.742 38.3574 389.812 38.1629 383.812 40.7336C377.812 43.3043 372.937 48.9531 372.311 55.4559C372.032 58.4071 372.582 61.4852 371.652 64.3011C371.246 65.5273 370.562 66.7872 370.917 68.0303C371.124 68.585 371.485 69.0686 371.959 69.4238C372.432 69.779 372.997 69.991 373.587 70.0344C374.756 70.0866 375.919 69.8422 376.967 69.3241C380.652 67.7259 383.728 64.9692 386.677 62.2716" fill="#263238"/>
<path d="M405.978 133.777C406.332 130.631 406.354 127.457 406.045 124.306C406.045 118.725 406.045 116.442 406.045 116.493C406.045 116.544 417.783 114.455 420.107 99.0984C421.265 91.4879 420.8 78.9473 420.107 68.7237C419.465 59.5233 413.287 48.2766 404.136 49.2744L375.565 56.7159C374.222 56.8658 372.984 57.5148 372.097 58.5343C371.21 59.5537 370.737 60.8694 370.773 62.2209L373.452 115.926L405.978 133.777Z" fill="#FFBE9D"/>
<path d="M415.527 78.4907C415.534 79.0041 415.341 79.5002 414.99 79.8742C414.638 80.2482 414.155 80.4707 413.642 80.4948C413.393 80.5144 413.141 80.4844 412.903 80.4065C412.665 80.3286 412.444 80.2044 412.254 80.0409C412.064 79.8774 411.908 79.678 411.796 79.454C411.683 79.2301 411.616 78.986 411.597 78.7359C411.59 78.2225 411.783 77.7264 412.134 77.3524C412.486 76.9784 412.969 76.7559 413.482 76.7318C413.732 76.7099 413.984 76.7382 414.223 76.8153C414.463 76.8923 414.684 77.0164 414.874 77.1803C415.065 77.3441 415.221 77.5445 415.333 77.7695C415.445 77.9946 415.511 78.2398 415.527 78.4907Z" fill="#263238"/>
<path d="M417.454 75.2604C417.209 75.5225 415.713 74.4147 413.592 74.4147C411.471 74.4147 409.933 75.5056 409.705 75.2604C409.586 75.1504 409.831 74.6853 410.55 74.1864C411.46 73.5456 412.546 73.2029 413.659 73.2055C414.761 73.1948 415.837 73.5322 416.735 74.1695C417.327 74.6684 417.555 75.1335 417.454 75.2604Z" fill="#263238"/>
<path d="M394.815 79.2433C394.822 79.7567 394.629 80.2528 394.278 80.6268C393.926 81.0007 393.443 81.2233 392.93 81.2474C392.681 81.2681 392.429 81.2389 392.191 81.1613C391.953 81.0837 391.733 80.9594 391.543 80.7957C391.353 80.6319 391.198 80.432 391.087 80.2075C390.975 79.9831 390.91 79.7386 390.894 79.4885C390.887 78.9764 391.078 78.4815 391.428 78.1078C391.778 77.734 392.259 77.5106 392.77 77.4844C393.02 77.4624 393.272 77.4908 393.511 77.5678C393.751 77.6448 393.972 77.7689 394.162 77.9328C394.353 78.0967 394.509 78.2971 394.621 78.5221C394.733 78.7471 394.799 78.9923 394.815 79.2433Z" fill="#263238"/>
<path d="M396.632 75.7847C396.395 76.0468 394.891 74.9391 392.778 74.9391C390.666 74.9391 389.119 76.0299 388.891 75.7847C388.773 75.6748 389.018 75.2097 389.694 74.7108C390.602 74.0664 391.69 73.7233 392.804 73.7298C393.905 73.7151 394.983 74.0528 395.88 74.6938C396.53 75.2097 396.75 75.6663 396.632 75.7847Z" fill="#263238"/>
<path d="M404.423 91.4371C404.423 91.3187 405.724 91.082 407.854 90.7944C408.395 90.7353 408.91 90.6169 408.995 90.2533C409.04 89.6948 408.91 89.136 408.623 88.655L407 84.5622C404.736 78.719 403.096 73.9074 403.333 73.8144C403.57 73.7213 405.598 78.3976 407.854 84.2409C408.395 85.6869 408.919 87.0568 409.409 88.376C409.755 89.0233 409.86 89.7725 409.705 90.49C409.633 90.6785 409.519 90.8485 409.373 90.9875C409.227 91.1265 409.051 91.231 408.86 91.2934C408.559 91.3721 408.249 91.4146 407.938 91.4202C405.767 91.5386 404.431 91.5555 404.423 91.4371Z" fill="#263238"/>
<path d="M406.062 116.484C398.842 116.644 391.72 114.797 385.485 111.149C385.485 111.149 390.725 121.736 406.062 120.188V116.484Z" fill="#EB996E"/>
<path d="M403.561 96.5447C403.16 96.0472 402.64 95.6587 402.049 95.4149C401.458 95.1711 400.816 95.0798 400.181 95.1494C399.714 95.1964 399.26 95.3366 398.848 95.5617C398.436 95.7869 398.073 96.0924 397.781 96.4602C397.5 96.8172 397.335 97.2521 397.309 97.7059C397.284 98.1597 397.398 98.6105 397.637 98.997C397.979 99.3768 398.427 99.6446 398.923 99.7653C399.419 99.886 399.94 99.854 400.417 99.6735C401.412 99.312 402.325 98.7574 403.105 98.0415C403.344 97.8713 403.548 97.6558 403.705 97.4072C403.783 97.2911 403.825 97.1542 403.825 97.014C403.825 96.8739 403.783 96.7369 403.705 96.6208" fill="#EB996E"/>
<path d="M398.203 92.9424C398.55 92.9424 398.575 95.2171 400.553 96.8407C402.53 98.4643 404.972 98.1852 404.989 98.5319C404.989 98.6757 404.448 98.9801 403.417 99.0139C402.071 99.0439 400.757 98.5977 399.708 97.7539C398.701 96.9436 398.049 95.7729 397.891 94.4898C397.798 93.5005 398.017 92.9339 398.203 92.9424Z" fill="#263238"/>
<path d="M396.944 69.3833C396.741 69.9584 394.629 69.6962 392.144 70.0176C389.66 70.3389 387.657 71.0239 387.328 70.508C387.176 70.2628 387.522 69.7216 388.333 69.155C389.401 68.4536 390.621 68.016 391.891 67.8781C393.162 67.7206 394.453 67.8624 395.66 68.2925C396.573 68.6561 397.029 69.1043 396.944 69.3833Z" fill="#263238"/>
<path d="M416.752 65.9585C416.389 66.4405 414.927 65.9585 413.169 65.9585C411.412 65.9585 409.933 66.3052 409.595 65.7979C409.443 65.5611 409.671 65.0706 410.313 64.614C411.18 64.0609 412.192 63.7784 413.219 63.8024C414.247 63.8265 415.245 64.1561 416.085 64.7493C416.71 65.2567 416.913 65.7556 416.752 65.9585Z" fill="#263238"/>
<path d="M375.286 87.9447C375.286 86.8031 373.942 84.1225 372.81 83.9534C369.793 83.5052 364.359 83.7843 364.359 91.4372C364.359 101.898 374.855 99.7412 374.872 99.4367C374.889 99.1323 375.328 91.8684 375.286 87.9447Z" fill="#FFBE9D"/>
<path d="M371.694 95.4454C371.652 95.4454 371.517 95.5807 371.204 95.716C370.768 95.895 370.279 95.895 369.844 95.716C368.737 95.3101 367.807 93.5512 367.756 91.6655C367.733 90.7707 367.906 89.8816 368.263 89.061C368.363 88.7344 368.539 88.4364 368.777 88.1921C369.015 87.9478 369.308 87.7644 369.632 87.6572C369.842 87.6005 370.066 87.6194 370.264 87.7106C370.461 87.8017 370.621 87.9594 370.714 88.1561C370.849 88.4521 370.782 88.6551 370.841 88.6804C370.9 88.7058 371.069 88.5028 370.984 88.0716C370.922 87.8123 370.777 87.5806 370.57 87.412C370.282 87.1974 369.921 87.1034 369.565 87.1499C369.135 87.233 368.733 87.4263 368.4 87.7109C368.067 87.9954 367.813 88.3615 367.663 88.7734C367.216 89.679 366.998 90.681 367.03 91.6908C367.097 93.7964 368.179 95.7667 369.691 96.2065C369.976 96.2897 370.276 96.3079 370.568 96.2596C370.861 96.2113 371.139 96.0978 371.382 95.9274C371.677 95.6991 371.728 95.4708 371.694 95.4454Z" fill="#AA6550"/>
<path d="M405.555 47.4817C405.137 50.0193 404.043 52.397 402.387 54.3644C400.732 56.3318 398.577 57.8161 396.15 58.6608C393.556 59.5065 390.412 59.8278 388.908 62.1194C387.404 64.4111 388.401 67.7851 386.981 70.1951C385.021 73.5269 379.376 73.5184 377.965 77.1123C377.339 78.6852 377.736 80.4948 377.119 82.0846C376.274 84.1648 373.579 85.095 371.415 84.4692C370.349 84.0975 369.376 83.4958 368.567 82.7068C367.758 81.9177 367.132 80.9606 366.734 79.9029C365.952 77.785 365.515 75.5551 365.441 73.2986C365.103 68.876 364.959 64.3434 366.193 60.0815C368.779 51.1517 381.294 38.5773 390.573 38.9409" fill="#263238"/>
<path d="M388.181 43.4566C388.181 43.7018 392.592 43.4566 397.291 45.8497C401.989 48.2428 404.516 51.8705 404.702 51.6929C404.332 50.8105 403.789 50.0112 403.105 49.3421C401.559 47.6183 399.701 46.2036 397.629 45.1732C395.565 44.1359 393.322 43.5044 391.021 43.3128C390.074 43.1691 389.108 43.218 388.181 43.4566Z" fill="#455A64"/>
<path d="M399.834 42.6955C399.725 42.89 402.015 43.9301 403.553 46.4501C405.091 48.97 405.074 51.4561 405.302 51.4392C405.395 51.4392 405.547 50.8304 405.471 49.8072C405.346 48.4735 404.914 47.1871 404.207 46.0496C403.5 44.9122 402.538 43.9549 401.398 43.2536C400.493 42.7378 399.868 42.6109 399.834 42.6955Z" fill="#455A64"/>
<path d="M362.576 94.5067C362.473 94.3837 362.382 94.2505 362.306 94.1093L361.596 92.9339C361.452 92.6802 361.266 92.4011 361.106 92.0882L360.607 91.0228C360.421 90.6338 360.235 90.2279 360.033 89.7882C359.83 89.3484 359.686 88.858 359.509 88.3591C358.661 86.0044 358.049 83.5711 357.683 81.0952C356.791 75.0134 357.124 68.8143 358.664 62.8635C358.997 61.5695 359.398 60.2937 359.864 59.0413C360.092 58.4579 360.261 57.8744 360.506 57.3501C360.751 56.8258 360.979 56.3184 361.199 55.828C361.597 54.9584 362.043 54.1115 362.534 53.2911C362.745 52.9275 362.931 52.5808 363.117 52.2679L363.683 51.4223L364.469 50.3061C364.655 50.0524 364.756 49.9255 364.773 49.934C364.711 50.0821 364.635 50.2237 364.545 50.3568C364.351 50.6612 364.114 51.0502 363.827 51.5153L363.303 52.3609C363.117 52.6738 362.948 53.029 362.745 53.401C362.283 54.2247 361.862 55.0714 361.486 55.9379C361.275 56.4284 361.055 56.9357 360.819 57.4685C360.582 58.0012 360.421 58.5762 360.21 59.1597C359.762 60.3182 359.424 61.612 359.052 62.9566C358.317 65.9031 357.864 68.913 357.7 71.9455C357.543 74.9781 357.67 78.0188 358.081 81.0275C358.418 83.4821 358.984 85.8998 359.771 88.2491C359.94 88.748 360.1 89.2216 360.261 89.6782L360.793 90.9128C360.962 91.2934 361.114 91.657 361.258 91.9868C361.402 92.3166 361.579 92.5956 361.714 92.8324L362.348 94.0416C362.449 94.1831 362.526 94.3402 362.576 94.5067Z" fill="#455A64"/>
<path d="M344.687 193.182C344.687 193.182 344.763 193.368 344.898 193.732L345.455 195.373L347.543 201.588L354.92 223.862L354.65 223.76C359.273 220.987 364.235 218.824 369.413 217.325C370.807 216.961 372.227 216.572 373.68 216.268C375.134 215.963 376.612 215.667 378.125 215.498C381.203 215.051 384.311 214.845 387.421 214.881C390.105 214.887 392.784 215.113 395.432 215.558L395.17 215.82L390.75 196.286C390.581 195.525 390.429 194.772 390.226 194.053C390.023 193.335 389.787 192.624 389.55 191.922C389.068 190.527 388.578 189.166 388.08 187.855C387.099 185.225 386.136 182.781 385.215 180.473V180.43C384.877 177.048 384.573 174.046 384.311 171.382C383.998 169.119 383.431 166.897 382.621 164.761C381.987 162.985 381.387 161.649 380.981 160.744L380.5 159.721C380.436 159.609 380.385 159.49 380.348 159.366C380.348 159.366 380.424 159.476 380.542 159.696C380.66 159.916 380.846 160.254 381.066 160.702C381.497 161.598 382.122 162.926 382.756 164.693C383.592 166.837 384.179 169.07 384.505 171.348C384.792 174.012 385.114 177.039 385.477 180.38C386.407 182.671 387.387 185.132 388.384 187.762C388.885 189.07 389.381 190.426 389.871 191.829C390.116 192.531 390.344 193.25 390.564 193.977C390.784 194.705 390.928 195.474 391.105 196.227C392.482 202.273 393.978 208.843 395.558 215.76L395.626 216.082L395.296 216.023C392.677 215.584 390.026 215.36 387.37 215.355C384.286 215.321 381.203 215.524 378.15 215.963C376.646 216.133 375.184 216.445 373.731 216.725C372.277 217.004 370.883 217.401 369.506 217.765C364.356 219.239 359.415 221.365 354.802 224.09L354.59 224.208L354.523 223.988L347.315 201.656C346.47 198.983 345.794 196.869 345.329 195.406C345.12 194.696 344.951 194.146 344.822 193.757C344.729 193.377 344.687 193.182 344.687 193.182Z" fill="#263238"/>
<path d="M357.024 271.893L350.331 292.467L344.687 366.197H434.693L430.518 268.367L366.624 267.935L357.024 271.893Z" fill="#263238"/>
<path d="M365.238 127.055C365.238 127.055 400.823 172.448 401.398 176.312C401.972 180.177 400.046 187.474 398.153 190.688C396.26 193.901 390.987 199.888 390.987 199.888L365.272 258.329L357.058 261.5V271.859L365.171 268.612L355.283 366.163H451.948L444.901 256.976V235.328C444.901 235.328 443.473 195.203 441.208 187.973C438.943 180.743 432.191 164.135 432.191 164.135L416.811 144.432L416.102 148.415L428.583 164.135C428.583 164.135 426.47 166.089 421.645 168C417.868 169.496 405.42 169.353 405.42 169.353L366.624 123.799L365.238 127.055Z" fill="#E96137"/>
<path d="M364.072 128.45C364.072 128.45 349.385 138.682 344.56 151.045C341.044 160.051 336.109 171.272 338.822 177.919C340.132 181.107 354.7 223.921 354.7 223.921C367.3 215.735 387.953 213.773 395.381 215.735L390.59 194.654C390.59 194.654 384.987 180.033 384.987 177.919C384.91 173.513 384.199 169.141 382.874 164.939C381.066 159.197 364.072 128.45 364.072 128.45Z" fill="#455A64"/>
<path d="M394.477 210.467C394.333 210.48 394.189 210.48 394.046 210.467H392.795C391.705 210.416 390.133 210.391 388.198 210.399C386.263 210.408 383.973 210.501 381.438 210.712C378.902 210.924 376.088 211.304 373.19 211.854C370.291 212.403 367.562 213.122 365.103 213.858C362.644 214.594 360.48 215.397 358.689 216.116C356.897 216.834 355.444 217.469 354.464 217.925L353.323 218.433C353.195 218.507 353.055 218.559 352.909 218.585C353.026 218.498 353.15 218.421 353.281 218.357L354.388 217.773C355.351 217.266 356.779 216.589 358.571 215.828C360.362 215.067 362.534 214.255 364.985 213.469C367.653 212.642 370.364 211.958 373.105 211.422C375.85 210.904 378.62 210.531 381.404 210.306C383.939 210.112 386.288 210.053 388.232 210.086C390.175 210.12 391.756 210.188 392.837 210.289L394.08 210.408C394.214 210.408 394.348 210.428 394.477 210.467Z" fill="#263238"/>
<path d="M384.497 206.611C384.325 206.557 384.158 206.489 383.998 206.408L382.621 205.765L381.632 205.283C381.277 205.097 380.897 204.877 380.491 204.649C379.646 204.175 378.725 203.677 377.753 203L376.207 201.977C375.666 201.622 375.142 201.19 374.584 200.785C373.452 199.939 372.336 198.983 371.145 197.969C366.064 193.423 361.866 187.975 358.765 181.902C358.089 180.49 357.413 179.162 356.923 177.86C356.661 177.209 356.382 176.591 356.171 175.982C355.959 175.374 355.765 174.79 355.579 174.224C355.174 173.116 354.937 172.067 354.683 171.162C354.565 170.706 354.438 170.317 354.354 169.894C354.269 169.471 354.21 169.141 354.143 168.812C354.036 168.203 353.943 167.704 353.864 167.315C353.821 167.143 353.798 166.967 353.796 166.791C353.869 166.952 353.92 167.123 353.948 167.298C354.041 167.678 354.16 168.144 354.312 168.778C354.388 169.099 354.464 169.454 354.557 169.843C354.65 170.232 354.793 170.647 354.92 171.095C355.19 171.991 355.444 173.023 355.875 174.122C356.069 174.68 356.272 175.264 356.492 175.864C356.712 176.464 356.99 177.073 357.252 177.716C357.759 179.001 358.444 180.32 359.128 181.716C362.244 187.716 366.405 193.111 371.415 197.647C372.59 198.662 373.689 199.66 374.796 200.472C375.353 200.886 375.86 201.317 376.393 201.681L377.914 202.721C378.869 203.414 379.807 203.922 380.601 204.412C381.007 204.649 381.37 204.886 381.725 205.08L382.697 205.596L384.032 206.315C384.197 206.396 384.353 206.496 384.497 206.611Z" fill="#263238"/>
<path d="M385.959 183.432C385.652 183.261 385.368 183.05 385.114 182.807C384.564 182.384 383.787 181.75 382.84 180.946C380.956 179.348 378.412 177.048 375.734 174.384C373.055 171.72 370.756 169.167 369.151 167.281C368.348 166.334 367.714 165.59 367.292 165.015C367.05 164.757 366.837 164.474 366.658 164.169C366.939 164.397 367.194 164.655 367.418 164.939L369.387 167.103C371.077 168.938 373.376 171.433 376.046 174.105C378.717 176.777 381.218 179.086 383.052 180.752L385.224 182.714C385.487 182.933 385.733 183.174 385.959 183.432Z" fill="#263238"/>
<path d="M415.172 154.749C415.172 154.749 415.113 154.749 415.02 154.622L414.606 154.225C414.234 153.869 413.685 153.379 412.916 152.753C412.014 152.009 411.04 151.358 410.009 150.808C409.372 150.466 408.689 150.219 407.981 150.073C407.6 149.994 407.211 149.963 406.823 149.98L406.231 150.073C406.056 150.124 405.902 150.231 405.792 150.377C405.28 151.102 404.895 151.908 404.651 152.762C404.355 153.65 404.11 154.597 403.874 155.586C403.367 157.675 403.028 159.802 402.86 161.945C402.855 162.01 402.855 162.075 402.86 162.14C402.86 162.14 402.86 162.19 402.86 162.182C403.113 162.021 402.572 162.672 402.581 162.469H402.53L402.226 162.156L401.626 161.522L400.401 160.228L397.865 157.556L392.592 151.933L374.153 132.128L368.61 126.082C367.976 125.389 367.477 124.831 367.114 124.391L366.734 123.96C366.69 123.909 366.651 123.856 366.615 123.799C366.615 123.799 366.675 123.799 366.768 123.926L367.182 124.332L368.737 125.938L374.381 131.858L392.947 151.603L398.22 157.227L400.755 159.907C401.172 160.341 401.578 160.772 401.972 161.201L402.572 161.835L402.868 162.148C402.868 162.19 402.868 162.072 402.809 162.207C402.75 162.343 402.522 162.427 402.572 162.419V162.368C402.543 162.316 402.528 162.258 402.53 162.199C402.522 162.12 402.522 162.041 402.53 161.962C402.593 160.826 402.734 159.696 402.953 158.58C403.138 157.514 403.358 156.474 403.595 155.485C403.831 154.495 404.093 153.531 404.44 152.635C404.703 151.745 405.118 150.906 405.665 150.157C405.82 149.963 406.034 149.824 406.274 149.76L406.916 149.667C407.33 149.654 407.745 149.694 408.15 149.785C408.88 149.944 409.583 150.209 410.237 150.571C411.272 151.143 412.244 151.824 413.135 152.601C413.703 153.085 414.245 153.599 414.758 154.14C414.935 154.326 415.062 154.47 415.147 154.571C415.231 154.673 415.18 154.749 415.172 154.749Z" fill="#263238"/>
<path d="M420.682 149.887C420.614 149.887 420.437 148.787 419.989 147.054C419.752 146.043 419.398 145.064 418.932 144.136C418.67 143.654 418.214 143.113 417.775 143.434C417.326 143.858 417.002 144.396 416.837 144.99C416.241 147.245 415.872 149.554 415.738 151.882C415.586 153.675 415.527 154.783 415.468 154.783C415.371 153.813 415.371 152.835 415.468 151.865C415.511 149.497 415.843 147.143 416.456 144.855C416.65 144.157 417.047 143.533 417.597 143.062C417.773 142.95 417.981 142.899 418.189 142.919C418.385 142.944 418.57 143.026 418.721 143.155C418.972 143.373 419.178 143.638 419.33 143.933C419.79 144.902 420.128 145.925 420.335 146.978C420.521 147.865 420.631 148.593 420.69 149.092C420.733 149.355 420.731 149.624 420.682 149.887Z" fill="#263238"/>
<g opacity="0.3">
<path d="M370.697 245.949L372.041 247.285C372.041 247.074 371.99 246.862 371.956 246.643L370.697 245.949Z" fill="black"/>
<path d="M405.919 251.15C401.017 254.016 395.939 257.289 390.26 257.323C383.128 257.374 377.196 252.393 372.041 247.302C372.784 253.162 373.646 259.141 376.435 264.342C379.325 269.728 384.801 274.176 390.911 274.032C394.68 273.939 398.17 272.172 401.609 270.65C410.507 266.65 420.006 263.885 428.312 258.811C436.619 253.737 443.836 245.493 444.461 235.759C430.923 238.952 417.934 244.139 405.919 251.15Z" fill="black"/>
</g>
<path d="M425.076 171.002L434.676 166.807L436.231 171.002L426.876 175.069L425.076 171.002Z" fill="white"/>
<path d="M440.27 292.078C440.173 292.255 440.063 292.425 439.94 292.585L438.943 294.006C438.504 294.623 437.963 295.367 437.253 296.196C436.543 297.025 435.842 298.006 434.929 299.004L433.526 300.593C433.036 301.143 432.487 301.684 431.938 302.285C430.856 303.443 429.605 304.593 428.304 305.819C425.425 308.411 422.386 310.817 419.203 313.024C415.988 315.191 412.638 317.148 409.172 318.884C407.558 319.654 406.037 320.398 404.558 320.99C403.823 321.286 403.122 321.607 402.437 321.835L400.443 322.563C399.184 323.053 398.009 323.408 396.987 323.704C395.964 324 395.077 324.279 394.342 324.457L392.651 324.871C392.459 324.932 392.261 324.972 392.06 324.99C392.244 324.903 392.437 324.835 392.635 324.787L394.325 324.288C395.051 324.085 395.939 323.823 396.944 323.442C397.95 323.061 399.125 322.749 400.324 322.241L402.302 321.497C402.986 321.226 403.679 320.905 404.406 320.601C405.868 320 407.381 319.248 408.986 318.47C412.421 316.721 415.745 314.764 418.941 312.61C422.113 310.417 425.147 308.031 428.025 305.464C429.327 304.255 430.56 303.122 431.676 301.972C432.225 301.405 432.774 300.881 433.273 300.34C433.771 299.798 434.236 299.274 434.693 298.775C435.614 297.794 436.383 296.83 437.05 296.018C437.718 295.207 438.318 294.479 438.74 293.879L439.814 292.509C439.946 292.346 440.1 292.201 440.27 292.078Z" fill="#263238"/>
<g opacity="0.3">
<path d="M400.384 314.098C398.495 315.268 396.825 316.759 395.449 318.504C394.164 320.305 393.395 322.36 394.122 324.423C409.95 320.195 424.89 309.447 436.087 297.465C424.451 301.507 410.507 307.113 400.384 314.098Z" fill="black"/>
</g>
<path d="M416.017 252.114L419.186 256.393L528.924 179.06L526.456 175.069L416.017 252.114Z" fill="#263238"/>
<path d="M455.793 179.94C455.742 180.195 455.742 180.457 455.794 180.711C455.846 180.966 455.948 181.207 456.094 181.422C456.241 181.636 456.429 181.819 456.647 181.96C456.865 182.1 457.109 182.195 457.365 182.24L497.826 189.208H504.494L499.153 185.868L458.016 178.426C457.522 178.343 457.015 178.455 456.601 178.737C456.187 179.019 455.898 179.45 455.793 179.94Z" fill="#E96137"/>
<path d="M393.987 215.566C394.181 216.708 398.212 230.271 398.212 230.271L455.033 205.368L471.875 183.432L476.1 181.969L482.134 176.312C482.134 176.312 484.263 176.896 484.364 178.409L488.286 177.014C488.481 176.944 488.689 176.919 488.896 176.941C489.102 176.963 489.301 177.031 489.477 177.141L494.108 179.982C494.283 180.091 494.432 180.236 494.544 180.409C494.657 180.581 494.73 180.776 494.759 180.98L494.928 182.181C494.97 182.487 494.911 182.8 494.758 183.069C494.605 183.338 494.368 183.549 494.083 183.669C494.083 183.669 496.406 185.589 496.508 187.204C496.453 188.566 496.143 189.905 495.595 191.153L496.702 196.032L491.556 199.415C491.159 200.26 485.793 203.44 485.793 203.44L465.148 217.815C465.148 217.815 407.482 258.481 400.316 261.509C393.15 264.536 392.635 265.847 388.992 265.035C385.35 264.223 377.576 256.849 376.165 254.219C374.753 251.59 357.895 222.035 357.988 221.984C374.356 213.241 393.437 214.391 393.987 215.566Z" fill="#FFBE9D"/>
<path d="M484.812 178.257C484.812 178.367 482.75 179.187 480.232 180.38C478.965 180.955 477.798 181.462 476.937 181.766C476.481 181.975 475.991 182.101 475.491 182.139C475.906 181.867 476.352 181.646 476.818 181.479L480.055 179.974C481.552 179.18 483.154 178.603 484.812 178.257Z" fill="#EB996E"/>
<path d="M494.116 183.5C494.116 183.576 493.33 183.424 492.071 183.449C490.439 183.482 488.832 183.86 487.356 184.557C485.666 185.403 484.187 186.434 482.987 186.925C482.367 187.256 481.678 187.435 480.976 187.449C480.976 187.381 481.736 187.221 482.852 186.646C483.967 186.071 485.387 185.031 487.162 184.16C488.694 183.433 490.377 183.082 492.071 183.136C492.77 183.123 493.465 183.246 494.116 183.5Z" fill="#EB996E"/>
<path d="M495.477 191.576C495.094 191.259 494.684 190.976 494.252 190.73C493.178 190.284 491.982 190.227 490.871 190.569C489.752 190.966 488.703 191.536 487.762 192.261C487.381 192.597 486.957 192.881 486.502 193.106C486.797 192.693 487.157 192.33 487.567 192.032C488.492 191.206 489.572 190.574 490.745 190.172C491.962 189.787 493.283 189.896 494.421 190.476C495.249 190.975 495.511 191.567 495.477 191.576Z" fill="#EB996E"/>
<path d="M493.804 196.37C492.657 197.053 491.439 197.606 490.17 198.019C488.956 198.575 487.683 198.992 486.376 199.262C487.522 198.58 488.741 198.026 490.009 197.613C491.225 197.062 492.497 196.645 493.804 196.37Z" fill="#EB996E"/>
<path d="M476.539 196.032C476.539 196.083 476.168 196.184 475.559 196.032C474.759 195.859 474.054 195.39 473.584 194.719C473.114 194.048 472.914 193.225 473.024 192.413C473.117 191.796 473.337 191.483 473.379 191.5C473.421 191.517 473.337 191.872 473.337 192.43C473.314 193.154 473.525 193.866 473.937 194.461C474.349 195.056 474.942 195.503 475.627 195.736C476.176 195.948 476.539 195.965 476.539 196.032Z" fill="#EB996E"/>
<path d="M478.111 202.865C478.111 202.915 477.798 202.907 477.367 202.704C476.813 202.426 476.349 201.995 476.032 201.461C475.708 200.93 475.546 200.316 475.568 199.694C475.568 199.22 475.72 198.95 475.77 198.966C475.841 199.755 476.058 200.524 476.413 201.233C477.072 202.374 478.153 202.746 478.111 202.865Z" fill="#EB996E"/>
<path d="M473.404 188.971C473.404 189.081 472.449 188.827 471.782 187.906C471.114 186.984 471.148 186.02 471.266 186.028C471.385 186.037 471.537 186.874 472.111 187.644C472.686 188.413 473.463 188.853 473.404 188.971Z" fill="#EB996E"/>
<path d="M183.992 252.579L195.333 306.149L197.319 366.197L187.398 364.742L176.505 257.34L183.992 252.579Z" fill="#263238"/>
<path d="M81.843 210.991L81.7247 214.695L66.2434 366.197H195.333L180.215 250L172.06 218.906" fill="#E96137"/>
<g opacity="0.3">
<path d="M179.877 254.042C163.322 260.299 148.128 269.635 132.275 277.499C116.422 285.364 99.3184 291.875 81.6316 291.79C78.995 291.79 76.0542 290.353 73.8402 291.79L73.1304 299.401C82.671 306.504 95.4058 308.119 107.169 306.377C118.932 304.635 129.985 299.841 140.878 295.097C147.74 292.12 155.016 288.78 158.937 282.412C161.193 278.751 162.207 274.252 165.291 271.259C168.376 268.265 173.066 267.343 176.759 265.001C180.451 262.659 183.037 257.069 179.877 254.042Z" fill="black"/>
</g>
<path d="M102.614 101.897C102.614 101.897 74.4573 112.552 72.5897 115.174C70.7221 117.795 60.759 164.473 60.759 164.473L78.5895 167.712L83.8373 237.518L172.719 255.53C172.719 255.53 170.843 174.596 172.719 174.35C174.595 174.105 180.215 112.561 180.215 112.561L159.587 100.925L151.72 89.7712L110.701 92.7732L102.614 101.897Z" fill="#455A64"/>
<path d="M63.4631 164.913L59.7364 188.413L35.585 219.955L60.7505 230.06L81.3359 206.476L79.6204 167.298L63.4631 164.913Z" fill="#AA6550"/>
<path d="M94.6961 104.73L77.1191 167.704L83.8795 237.518L172.762 255.53L172.103 218.906L170.936 217.528C157.841 202.015 148.992 183.368 145.255 163.408L143.109 152.212L159.587 100.959L156.334 96.3333L135.546 150.622L89.8371 150.377L99.5636 102.794L94.6961 104.73Z" fill="#E96137"/>
<path d="M172.052 180.802L211.042 175.932C211.042 175.932 205.009 140.542 202.135 133.651C199.262 126.759 180.215 112.561 180.215 112.561L166.812 118.996L163.094 146.673L172.052 180.802Z" fill="#455A64"/>
<path d="M136.146 157.793H117.25V163.366H136.146V157.793Z" fill="#FAFAFA"/>
<path d="M82.012 209.029C81.8937 209.029 79.6036 190.29 76.8995 167.154C74.1953 144.018 72.0996 125.245 72.2179 125.228C72.3362 125.211 74.6347 143.959 77.3389 167.103C80.043 190.248 82.1303 209.012 82.012 209.029Z" fill="#263238"/>
<path d="M163.483 152.212C163.424 152.076 163.382 151.935 163.356 151.789C163.28 151.502 163.17 151.087 163.06 150.538C162.824 149.455 162.528 147.874 162.275 145.904C161.547 140.749 161.744 135.506 162.858 130.42C164.013 125.317 166.507 120.615 170.083 116.797C171.168 115.657 172.372 114.636 173.674 113.753C174.131 113.423 174.519 113.229 174.764 113.077C174.889 112.995 175.022 112.927 175.162 112.874C175.162 112.874 174.663 113.237 173.776 113.888C172.523 114.818 171.361 115.862 170.303 117.009C166.848 120.845 164.433 125.503 163.289 130.539C162.193 135.576 161.953 140.761 162.579 145.878C162.799 147.849 163.044 149.43 163.229 150.529L163.441 151.789C163.474 151.928 163.488 152.07 163.483 152.212Z" fill="#263238"/>
<path d="M211.042 175.932C210.821 175.995 210.595 176.037 210.366 176.059L208.44 176.329L201.333 177.251L177.857 180.117L170.387 181.005H170.201L170.15 180.819C168.46 173.581 166.838 167.289 165.638 162.841C165.046 160.643 164.565 158.867 164.227 157.599C164.075 157.015 163.948 156.55 163.855 156.186C163.81 156.025 163.776 155.862 163.753 155.696C163.835 155.844 163.895 156.004 163.931 156.169C164.041 156.516 164.184 157.015 164.37 157.556C164.742 158.774 165.266 160.541 165.908 162.765C167.184 167.213 168.849 173.488 170.573 180.718L170.336 180.557L177.807 179.661L201.29 176.913L208.423 176.126L210.358 175.94C210.585 175.917 210.814 175.914 211.042 175.932Z" fill="#263238"/>
<path d="M122.456 221.257C122.141 221.01 121.857 220.727 121.611 220.411C121.112 219.862 120.411 219.033 119.566 218.001C117.876 215.938 115.636 212.995 113.372 209.604C111.107 206.213 109.265 203.017 108.014 200.658C107.38 199.482 106.899 198.518 106.577 197.842C106.392 197.502 106.24 197.145 106.121 196.776C106.358 197.084 106.562 197.416 106.73 197.766L108.284 200.505C109.603 202.822 111.487 205.977 113.743 209.359C116 212.742 118.18 215.701 119.811 217.815L121.746 220.352C122.01 220.631 122.248 220.934 122.456 221.257Z" fill="#263238"/>
<path d="M119.946 129.439C119.769 129.34 119.602 129.224 119.447 129.093L118.053 128.019L112.983 124.027C111.91 123.182 110.769 122.209 109.476 121.304C108.823 120.832 108.094 120.474 107.321 120.247C106.504 120.036 105.644 120.054 104.837 120.298C103.08 120.882 101.625 122.138 100.789 123.791C99.931 125.598 99.3934 127.541 99.2001 129.532C99.2001 129.854 99.1156 130.175 99.0734 130.471H98.6339C98.6091 126.664 98.8293 122.859 99.2931 119.081C99.6972 115.997 100.29 112.942 101.068 109.931C101.727 107.394 102.335 105.339 102.758 103.935C102.969 103.267 103.138 102.735 103.265 102.32C103.316 102.13 103.387 101.946 103.476 101.771C103.446 101.965 103.404 102.157 103.349 102.346L102.918 103.978C102.546 105.398 101.98 107.445 101.372 110.007C100.633 112.999 100.069 116.031 99.6818 119.089C99.2454 122.853 99.0393 126.64 99.0649 130.429H98.6255C98.6677 130.133 98.71 129.811 98.7607 129.49C98.9519 127.435 99.507 125.431 100.4 123.571C101.293 121.822 102.843 120.499 104.71 119.892C105.594 119.643 106.53 119.643 107.414 119.892C108.228 120.139 108.997 120.519 109.687 121.017C111.005 121.964 112.112 122.953 113.177 123.799L118.155 127.909L119.49 129.042C119.653 129.161 119.805 129.294 119.946 129.439Z" fill="#263238"/>
<path d="M156.173 95.9866C156.123 96.1998 156.049 96.4068 155.954 96.6039C155.768 97.0352 155.531 97.6102 155.235 98.2951L152.523 104.603L143.43 125.347L142.585 127.325L142.424 127.689L142.205 127.359L135.799 117.964L136.087 118.007L125.659 126.336L122.684 128.678L121.881 129.287C121.795 129.362 121.698 129.425 121.594 129.473C121.594 129.473 121.67 129.389 121.839 129.236L122.6 128.577L125.515 126.15L135.833 117.694L136.002 117.558L136.129 117.736C138.089 120.594 140.27 123.765 142.56 127.114H142.179L143.024 125.127L152.235 104.443C153.427 101.838 154.39 99.7073 155.075 98.1936C155.404 97.4833 155.675 96.9252 155.869 96.5024C155.956 96.3225 156.058 96.15 156.173 95.9866Z" fill="#263238"/>
<path d="M116.879 148.897C116.76 148.897 117.107 144.754 117.648 139.663C118.188 134.572 118.738 130.463 118.856 130.479C118.974 130.496 118.636 134.623 118.087 139.714C117.538 144.804 117.005 148.914 116.879 148.897Z" fill="#263238"/>
<path d="M122.211 133.109C122.211 133.109 122.211 132.923 122.405 132.695C122.553 132.539 122.731 132.415 122.929 132.332C123.127 132.249 123.34 132.209 123.554 132.213C123.864 132.214 124.164 132.325 124.4 132.526C124.659 132.764 124.844 133.072 124.932 133.414C125.046 133.803 125.034 134.218 124.898 134.599C124.761 134.981 124.507 135.309 124.171 135.536C123.823 135.742 123.421 135.838 123.017 135.813C122.613 135.787 122.226 135.641 121.907 135.393C121.652 135.187 121.461 134.913 121.355 134.604C121.249 134.294 121.232 133.961 121.307 133.642C121.384 133.225 121.606 132.848 121.932 132.577C122.169 132.399 122.338 132.374 122.346 132.391C121.962 132.73 121.703 133.189 121.611 133.693C121.57 133.95 121.599 134.213 121.694 134.456C121.789 134.698 121.947 134.91 122.152 135.071C122.411 135.252 122.715 135.356 123.03 135.373C123.345 135.389 123.659 135.317 123.935 135.164C124.115 135.03 124.264 134.86 124.374 134.665C124.484 134.469 124.551 134.253 124.572 134.029C124.593 133.806 124.566 133.581 124.494 133.368C124.422 133.156 124.307 132.961 124.154 132.796C123.979 132.639 123.756 132.544 123.521 132.526C123.157 132.492 122.795 132.598 122.507 132.822C122.321 132.983 122.245 133.126 122.211 133.109Z" fill="#263238"/>
<path d="M0 227.092L47.3903 214.695L155.582 236.614L97.2397 253.238L74.9726 249.298L74.5755 265.331L23.7881 251.353L23.6022 235.1L0 227.092Z" fill="#263238"/>
<path d="M4.33501 239.615C6.87015 244.875 10.5461 248.418 15.084 248.596C15.9967 248.596 16.6812 248.029 17.5516 247.979C18.0591 248.09 18.5485 248.272 19.005 248.52C19.242 248.627 19.4974 248.687 19.7571 248.697C24.4471 248.444 28.4442 245.137 31.1399 239.615C34.8919 231.886 33.7342 223.549 28.5541 221.054C27.8773 220.708 27.1701 220.425 26.4415 220.208C25.6033 219.974 24.7338 219.871 23.8641 219.904C21.835 220.034 19.839 220.482 17.9487 221.232L17.6952 221.325C13.47 219.473 10.0898 219.456 6.87015 221.037C1.73226 223.574 0.582995 231.886 4.33501 239.615Z" fill="#E96137"/>
<g opacity="0.3">
<path d="M4.33501 239.615C6.87015 244.875 10.5461 248.418 15.084 248.596C15.9967 248.596 16.6812 248.029 17.5516 247.979C18.0591 248.09 18.5485 248.272 19.005 248.52C19.242 248.627 19.4974 248.687 19.7571 248.697C24.4471 248.444 28.4442 245.137 31.1399 239.615C34.8919 231.886 33.7342 223.549 28.5541 221.054C27.8773 220.708 27.1701 220.425 26.4415 220.208C25.6033 219.974 24.7338 219.871 23.8641 219.904C21.835 220.034 19.839 220.482 17.9487 221.232L17.6952 221.325C13.47 219.473 10.0898 219.456 6.87015 221.037C1.73226 223.574 0.582995 231.886 4.33501 239.615Z" fill="black"/>
</g>
<path d="M4.41949 231.785C4.1782 231.299 4.03464 230.77 3.99697 230.229C3.84656 228.921 4.00526 227.596 4.46028 226.361C4.9153 225.126 5.65391 224.015 6.61662 223.117C6.99765 222.729 7.45518 222.423 7.96024 222.221C7.96024 222.272 7.47857 222.602 6.79408 223.303C5.9155 224.214 5.23629 225.298 4.79979 226.486C4.36329 227.674 4.17909 228.94 4.25893 230.204C4.30964 231.176 4.4871 231.768 4.41949 231.785Z" fill="#FAFAFA"/>
<path d="M5.37441 235.463C5.28145 235.463 5.11244 235.117 5.00258 234.618C4.89273 234.119 4.88428 233.772 5.00258 233.721C5.12089 233.671 5.26455 234.068 5.37441 234.567C5.48426 235.066 5.46736 235.438 5.37441 235.463Z" fill="#FAFAFA"/>
<path d="M47.7958 214.67C47.9949 213.351 47.9322 212.006 47.6113 210.711C47.2903 209.417 46.7175 208.198 45.9256 207.125C45.1337 206.052 44.1382 205.146 42.9961 204.459C41.8539 203.771 40.5875 203.316 39.2693 203.118C39.0277 203.056 38.7714 203.086 38.551 203.203C38.4251 203.327 38.3338 203.483 38.2864 203.653C38.2389 203.824 38.2369 204.004 38.2806 204.175C38.521 206.747 39.5699 209.176 41.2766 211.113C42.9832 213.05 45.2598 214.396 47.7789 214.957" fill="#455A64"/>
<path d="M33.6244 233.341C36.1595 238.601 39.8439 242.144 44.3818 242.313C45.286 242.313 45.9789 241.746 46.8409 241.696C47.3484 241.811 47.8376 241.996 48.2944 242.245C48.5344 242.351 48.7928 242.408 49.0549 242.415C53.7449 242.161 57.742 238.863 60.4377 233.341C64.1897 225.604 63.0236 217.274 57.8519 214.737C57.1722 214.391 56.4622 214.108 55.7308 213.892C54.9047 213.669 54.0509 213.567 53.1957 213.587C51.1656 213.716 49.169 214.167 47.2803 214.923L47.0268 215.016C42.8016 213.156 39.4214 213.148 36.2017 214.72C31.0216 217.325 29.8723 225.604 33.6244 233.341Z" fill="#E96137"/>
<g opacity="0.5">
<path d="M33.6244 233.341C36.1595 238.601 39.8439 242.144 44.3818 242.313C45.286 242.313 45.9789 241.746 46.8409 241.696C47.3484 241.811 47.8376 241.996 48.2944 242.245C48.5344 242.351 48.7928 242.408 49.0549 242.415C53.7449 242.161 57.742 238.863 60.4377 233.341C64.1897 225.604 63.0236 217.274 57.8519 214.737C57.1722 214.391 56.4622 214.108 55.7308 213.892C54.9047 213.669 54.0509 213.567 53.1957 213.587C51.1656 213.716 49.169 214.167 47.2803 214.923L47.0268 215.016C42.8016 213.156 39.4214 213.148 36.2017 214.72C31.0216 217.325 29.8723 225.604 33.6244 233.341Z" fill="black"/>
</g>
<path d="M33.7173 225.502C33.4688 225.018 33.3221 224.489 33.2863 223.946C33.1356 222.639 33.295 221.314 33.7517 220.08C34.2083 218.846 34.9492 217.737 35.9144 216.843C36.2917 216.452 36.7465 216.143 37.2496 215.938C37.2496 215.989 36.7679 216.327 36.0919 217.02C35.2106 217.933 34.5286 219.018 34.0891 220.208C33.6547 221.398 33.4678 222.664 33.5398 223.929C33.6074 224.935 33.8018 225.485 33.7173 225.502Z" fill="#FAFAFA"/>
<path d="M34.6469 229.164C34.5454 229.164 34.3764 228.825 34.275 228.318C34.1736 227.811 34.1483 227.472 34.275 227.422C34.4018 227.371 34.537 227.76 34.6469 228.267C34.7567 228.775 34.7652 229.164 34.6469 229.164Z" fill="#FAFAFA"/>
<path d="M70.2742 220.953C70.4746 219.634 70.4131 218.288 70.0932 216.993C69.7734 215.698 69.2016 214.479 68.4104 213.405C67.6193 212.332 66.6243 211.425 65.4825 210.736C64.3407 210.048 63.0744 209.591 61.7561 209.393C61.5115 209.335 61.2543 209.365 61.0294 209.477C60.7421 209.68 60.7336 210.103 60.759 210.458C61.0024 213.03 62.0535 215.458 63.7614 217.395C65.4692 219.332 67.7462 220.678 70.2658 221.24" fill="#455A64"/>
<path d="M56.1111 239.615C58.6463 244.875 62.3223 248.418 66.8686 248.596C67.7728 248.596 68.4573 248.029 69.3277 247.979C69.8353 248.09 70.3246 248.272 70.7812 248.52C71.0181 248.627 71.2735 248.687 71.5333 248.697C76.2233 248.444 80.2204 245.137 82.9161 239.615C86.6681 231.886 85.5104 223.549 80.3302 221.054C79.6535 220.708 78.9463 220.425 78.2176 220.208C77.3794 219.974 76.5099 219.871 75.6402 219.904C73.6113 220.035 71.6155 220.483 69.7249 221.232L69.4714 221.325C65.2461 219.473 61.9082 219.456 58.6463 221.037C53.5084 223.574 52.3929 231.886 56.1111 239.615Z" fill="#E96137"/>
<path d="M56.2041 231.785C55.9525 231.302 55.8057 230.772 55.7731 230.229C55.6227 228.921 55.7814 227.596 56.2364 226.361C56.6914 225.126 57.43 224.015 58.3927 223.117C58.7738 222.729 59.2313 222.423 59.7364 222.221C59.7364 222.272 59.2547 222.602 58.5702 223.303C57.6947 224.217 57.0134 225.298 56.5674 226.483C56.1317 227.672 55.9475 228.939 56.0266 230.204C56.0858 231.176 56.2632 231.768 56.2041 231.785Z" fill="#FAFAFA"/>
<path d="M57.1505 235.463C57.0576 235.463 56.8886 235.117 56.7787 234.618C56.6688 234.119 56.6604 233.772 56.7787 233.721C56.897 233.671 57.0491 234.068 57.1505 234.567C57.2519 235.066 57.2519 235.438 57.1505 235.463Z" fill="#FAFAFA"/>
<path d="M80.9724 208.294C80.9724 208.361 80.0006 208.733 78.5471 209.604C77.6952 210.119 76.8843 210.698 76.1218 211.338C75.2026 212.124 74.3543 212.99 73.5867 213.925C72.8219 214.874 72.1405 215.887 71.5501 216.953C71.0799 217.826 70.676 218.733 70.3417 219.667C69.7755 221.274 69.6065 222.323 69.4967 222.314C69.4876 222.064 69.5132 221.813 69.5727 221.57C69.6132 221.284 69.6725 221.002 69.7502 220.724C69.8347 220.394 69.9107 220.014 70.0544 219.608C70.3613 218.643 70.7515 217.706 71.2206 216.809C71.8064 215.717 72.4909 214.681 73.2656 213.714C74.0572 212.762 74.9372 211.887 75.8937 211.101C76.6882 210.465 77.5364 209.899 78.4288 209.41C78.7922 209.19 79.1556 209.038 79.4598 208.886C79.7346 208.756 80.0167 208.643 80.3048 208.547C80.5178 208.439 80.7416 208.354 80.9724 208.294Z" fill="#455A64"/>
<path d="M37.1313 232.233C37.526 229.574 36.8498 226.866 35.2511 224.705C33.6524 222.544 31.262 221.106 28.6048 220.707C28.3632 220.645 28.1069 220.675 27.8865 220.792C27.7613 220.917 27.6705 221.072 27.6231 221.242C27.5757 221.413 27.5733 221.593 27.6161 221.764C27.859 224.335 28.9088 226.762 30.6151 228.699C32.3213 230.636 34.5964 231.983 37.1144 232.546" fill="#455A64"/>
<path d="M22.96 250.905C25.4952 256.164 29.1796 259.707 33.7175 259.877C34.6217 259.877 35.3146 259.31 36.1766 259.259C36.6841 259.374 37.1732 259.559 37.63 259.809C37.87 259.915 38.1285 259.972 38.3906 259.978C43.0806 259.733 47.0777 256.426 49.7649 250.905C53.5169 243.167 52.3592 234.838 47.2298 232.301C46.5495 231.956 45.8396 231.673 45.1087 231.455C44.2693 231.228 43.4004 231.128 42.5313 231.159C40.5018 231.286 38.5053 231.734 36.616 232.487L36.3709 232.58C32.1457 230.72 28.7655 230.711 25.5459 232.284C20.3573 234.863 19.208 243.167 22.96 250.905Z" fill="#E96137"/>
<path d="M23.0529 243.074C22.8062 242.59 22.6596 242.06 22.622 241.518C22.4706 240.209 22.6296 238.883 23.0863 237.648C23.5429 236.412 24.2842 235.302 25.2501 234.406C25.6319 234.02 26.0854 233.713 26.5852 233.502C26.5852 233.561 26.1036 233.891 25.4275 234.584C24.5496 235.497 23.8709 236.582 23.4344 237.772C22.998 238.961 22.8134 240.228 22.8924 241.493C22.9346 242.465 23.1121 243.049 23.0529 243.074Z" fill="#FAFAFA"/>
<path d="M23.9994 246.744C23.9065 246.744 23.7374 246.406 23.6276 245.898C23.5177 245.391 23.5093 245.053 23.6276 245.002C23.7459 244.951 23.8895 245.349 23.9994 245.848C24.1093 246.347 24.1008 246.727 23.9994 246.744Z" fill="#FAFAFA"/>
<path d="M47.8213 219.583C47.8213 219.65 46.8495 220.022 45.396 220.893C44.5436 221.391 43.7326 221.957 42.9707 222.585C41.0988 224.148 39.5415 226.053 38.3821 228.2C37.9059 229.071 37.4991 229.979 37.1652 230.914C36.599 232.521 36.43 233.569 36.3202 233.561C36.3165 233.311 36.342 233.061 36.3962 232.817C36.4359 232.531 36.4952 232.248 36.5737 231.971C36.6563 231.593 36.7607 231.221 36.8864 230.855C37.1885 229.889 37.576 228.953 38.0441 228.056C38.6281 226.963 39.3127 225.927 40.0891 224.961C40.8986 224.026 41.7925 223.169 42.7594 222.399C43.5532 221.761 44.4015 221.195 45.2946 220.707C45.6664 220.487 46.0213 220.335 46.334 220.183C46.5933 220.052 46.8616 219.939 47.1368 219.845C47.3526 219.728 47.5827 219.64 47.8213 219.583Z" fill="#455A64"/>
<path d="M42.0073 256.739C44.5425 261.999 48.2269 265.542 52.7648 265.711C53.669 265.711 54.3535 265.145 55.2239 265.094C55.7314 265.209 56.2206 265.394 56.6774 265.644C56.9174 265.749 57.1758 265.807 57.4379 265.813C62.1279 265.568 66.125 262.261 68.8122 256.739C72.5643 249.002 71.4065 240.672 66.2349 238.136C65.5546 237.791 64.8447 237.508 64.1138 237.29C63.2744 237.062 62.4055 236.963 61.5364 236.994C59.5069 237.121 57.5104 237.569 55.6211 238.322L55.376 238.415C51.1507 236.554 47.7706 236.546 44.5509 238.119C39.4046 240.698 38.2553 249.002 42.0073 256.739Z" fill="#E96137"/>
<g opacity="0.3">
<path d="M42.0073 256.739C44.5425 261.999 48.2269 265.542 52.7648 265.711C53.669 265.711 54.3535 265.145 55.2239 265.094C55.7314 265.209 56.2206 265.394 56.6774 265.644C56.9174 265.749 57.1758 265.807 57.4379 265.813C62.1279 265.568 66.125 262.261 68.8122 256.739C72.5643 249.002 71.4065 240.672 66.2349 238.136C65.5546 237.791 64.8447 237.508 64.1138 237.29C63.2744 237.062 62.4055 236.963 61.5364 236.994C59.5069 237.121 57.5104 237.569 55.6211 238.322L55.376 238.415C51.1507 236.554 47.7706 236.546 44.5509 238.119C39.4046 240.698 38.2553 249.002 42.0073 256.739Z" fill="black"/>
</g>
<path d="M42.1003 248.909C41.8535 248.424 41.707 247.895 41.6693 247.353C41.5179 246.044 41.677 244.718 42.1336 243.483C42.5903 242.247 43.3316 241.136 44.2974 240.241C44.6737 239.842 45.1283 239.526 45.6326 239.311C45.6326 239.37 45.1509 239.7 44.4664 240.393C43.5928 241.31 42.9143 242.395 42.4721 243.581C42.0338 244.77 41.8467 246.037 41.9228 247.302C41.982 248.3 42.1595 248.883 42.1003 248.909Z" fill="#FAFAFA"/>
<path d="M43.0468 252.579C42.9538 252.579 42.7848 252.241 42.6749 251.733C42.5651 251.226 42.5566 250.888 42.6749 250.837C42.7933 250.786 42.9369 251.175 43.0468 251.682C43.1566 252.19 43.1482 252.562 43.0468 252.579Z" fill="#FAFAFA"/>
<path d="M83.947 244.596C86.4822 249.847 90.2257 253.382 94.8143 253.551C95.7354 253.551 96.4284 252.993 97.2988 252.942C97.8122 253.052 98.3073 253.234 98.7692 253.484C99.0111 253.592 99.2729 253.65 99.5381 253.653C104.27 253.408 108.31 250.11 111.031 244.596C114.825 236.884 113.65 228.597 108.42 226.077C107.734 225.731 107.019 225.447 106.282 225.231C105.433 225.005 104.557 224.903 103.679 224.927C101.65 225.064 99.6544 225.514 97.7635 226.263L97.51 226.348C93.2848 224.496 89.8623 224.487 86.5751 226.06C81.3189 228.597 80.1527 236.884 83.947 244.596Z" fill="#E96137"/>
<g opacity="0.5">
<path d="M83.947 244.596C86.4822 249.847 90.2257 253.382 94.8143 253.551C95.7354 253.551 96.4284 252.993 97.2988 252.942C97.8122 253.052 98.3073 253.234 98.7692 253.484C99.0111 253.592 99.2729 253.65 99.5381 253.653C104.27 253.408 108.31 250.11 111.031 244.596C114.825 236.884 113.65 228.597 108.42 226.077C107.734 225.731 107.019 225.447 106.282 225.231C105.433 225.005 104.557 224.903 103.679 224.927C101.65 225.064 99.6544 225.514 97.7635 226.263L97.51 226.348C93.2848 224.496 89.8623 224.487 86.5751 226.06C81.3189 228.597 80.1527 236.884 83.947 244.596Z" fill="black"/>
</g>
<path d="M84.04 236.774C83.7874 236.295 83.6405 235.767 83.609 235.227C83.4549 233.919 83.6144 232.593 84.0744 231.359C84.5343 230.125 85.2815 229.019 86.254 228.132C86.6404 227.746 87.1001 227.441 87.6061 227.236C87.6483 227.286 87.1244 227.616 86.4399 228.309C85.5519 229.218 84.8614 230.3 84.4118 231.489C83.9693 232.674 83.7821 233.939 83.8625 235.201C83.9217 236.182 84.0991 236.774 84.04 236.774Z" fill="#FAFAFA"/>
<path d="M85.0035 240.453C84.9021 240.453 84.733 240.114 84.6232 239.607C84.5133 239.1 84.5049 238.761 84.6232 238.711C84.7415 238.66 84.8936 239.049 85.0035 239.556C85.1133 240.064 85.0964 240.427 85.0035 240.453Z" fill="#FAFAFA"/>
<path d="M75.7669 241.146C75.966 239.828 75.9036 238.483 75.5833 237.189C75.2629 235.895 74.6908 234.677 73.8998 233.604C73.1087 232.531 72.1142 231.625 70.973 230.937C69.8318 230.249 68.5663 229.793 67.2488 229.595C67.007 229.536 66.7521 229.566 66.5305 229.679C66.4053 229.804 66.3146 229.959 66.2672 230.13C66.2198 230.3 66.2173 230.48 66.2601 230.652C66.4976 233.225 67.5453 235.657 69.2523 237.596C70.9593 239.535 73.2374 240.882 75.7585 241.442" fill="#455A64"/>
<path d="M61.6041 259.817C64.1392 265.077 67.8152 268.62 72.3616 268.789C73.2658 268.789 73.9502 268.231 74.8206 268.181C75.3282 268.291 75.8176 268.474 76.2741 268.722C76.5102 268.83 76.7664 268.888 77.0262 268.891C81.7247 268.646 85.7133 265.339 88.409 259.817C92.161 252.08 91.0033 243.751 85.8232 241.214C85.1482 240.863 84.4407 240.58 83.7106 240.368C82.8648 240.164 81.9924 240.093 81.1247 240.157C79.0952 240.284 77.0987 240.732 75.2094 241.484L74.9559 241.577C70.7306 239.717 67.3927 239.708 64.1308 241.281C59.0013 243.776 57.8521 252.08 61.6041 259.817Z" fill="#E96137"/>
<path d="M61.6884 251.995C61.4417 251.511 61.2951 250.982 61.2575 250.439C61.1051 249.13 61.2644 247.803 61.7222 246.566C62.175 245.33 62.9168 244.219 63.8856 243.328C64.2673 242.942 64.7209 242.634 65.2207 242.423C65.2207 242.482 64.739 242.812 64.0546 243.514C63.1791 244.426 62.5002 245.508 62.0602 246.693C61.6177 247.881 61.4306 249.149 61.511 250.414C61.5786 251.378 61.756 251.995 61.6884 251.995Z" fill="#FAFAFA"/>
<path d="M62.6434 255.657C62.5505 255.657 62.3815 255.319 62.2716 254.811C62.1618 254.304 62.1533 253.966 62.2716 253.915C62.3899 253.864 62.5336 254.262 62.635 254.761C62.7364 255.259 62.7449 255.64 62.6434 255.657Z" fill="#FAFAFA"/>
<path d="M86.4653 228.496C86.4653 228.563 85.4935 228.935 84.04 229.806C83.1881 230.321 82.3772 230.9 81.6148 231.54C80.6955 232.326 79.8472 233.192 79.0796 234.127C78.3173 235.076 77.6387 236.089 77.0515 237.155C76.5753 238.026 76.1685 238.934 75.8346 239.869C75.2684 241.476 75.0994 242.524 74.9896 242.516C74.9805 242.266 75.0061 242.015 75.0656 241.772C75.1061 241.486 75.1654 241.204 75.2431 240.926C75.3276 240.596 75.4036 240.216 75.5473 239.81C75.8564 238.846 76.2465 237.909 76.7135 237.011C77.2975 235.918 77.9821 234.882 78.7585 233.916C79.5523 232.966 80.4321 232.091 81.3866 231.303C82.1825 230.669 83.0305 230.103 83.9217 229.612C84.2851 229.392 84.6485 229.24 84.9527 229.087C85.2258 228.954 85.5082 228.841 85.7977 228.749C86.0107 228.641 86.2345 228.556 86.4653 228.496Z" fill="#455A64"/>
<path d="M105.437 249.771C107.972 255.031 111.648 258.574 116.186 258.743C117.098 258.743 117.783 258.185 118.653 258.135C119.161 258.246 119.65 258.428 120.107 258.676C120.343 258.784 120.599 258.842 120.859 258.845C125.549 258.6 129.546 255.293 132.241 249.771C135.994 242.034 134.836 233.705 129.656 231.168C128.979 230.821 128.272 230.538 127.543 230.322C126.704 230.095 125.835 229.995 124.966 230.026C122.936 230.152 120.939 230.6 119.05 231.354L118.797 231.447C114.572 229.586 111.191 229.578 107.972 231.151C102.834 233.73 101.685 242.034 105.437 249.771Z" fill="#E96137"/>
<path d="M105.521 241.941C105.28 241.455 105.136 240.926 105.099 240.385C104.942 239.075 105.101 237.747 105.563 236.512C106.016 235.277 106.755 234.168 107.718 233.273C108.104 232.888 108.56 232.581 109.062 232.368C109.062 232.428 108.58 232.757 107.896 233.459C107.017 234.37 106.338 235.454 105.901 236.642C105.465 237.83 105.281 239.096 105.361 240.36C105.411 241.332 105.631 241.924 105.521 241.941Z" fill="#FAFAFA"/>
<path d="M106.476 245.611C106.383 245.611 106.214 245.273 106.104 244.765C105.994 244.258 105.986 243.92 106.104 243.869C106.222 243.818 106.366 244.216 106.476 244.715C106.586 245.213 106.569 245.594 106.476 245.611Z" fill="#FAFAFA"/>
<path d="M137.253 233.637C137.452 232.318 137.389 230.973 137.068 229.678C136.747 228.384 136.174 227.165 135.383 226.092C134.591 225.02 133.595 224.114 132.453 223.426C131.311 222.739 130.044 222.283 128.726 222.086C128.485 222.019 128.227 222.049 128.008 222.17C127.712 222.365 127.704 222.788 127.738 223.143C127.982 225.713 129.032 228.14 130.738 230.076C132.444 232.013 134.718 233.36 137.236 233.924" fill="#455A64"/>
<path d="M123.081 252.3C125.616 257.56 129.301 261.103 133.839 261.28C134.743 261.28 135.427 260.714 136.298 260.663C136.807 260.774 137.296 260.96 137.751 261.213C137.993 261.314 138.25 261.372 138.512 261.382C143.202 261.128 147.199 257.822 149.886 252.3C153.638 244.571 152.481 236.233 147.309 233.738C146.629 233.393 145.919 233.11 145.188 232.893C144.349 232.662 143.48 232.56 142.61 232.588C140.581 232.719 138.584 233.17 136.695 233.924L136.45 234.009C132.225 232.157 128.845 232.14 125.625 233.721C120.479 236.258 119.329 244.571 123.081 252.3Z" fill="#E96137"/>
<g opacity="0.3">
<path d="M123.081 252.3C125.616 257.56 129.301 261.103 133.839 261.28C134.743 261.28 135.427 260.714 136.298 260.663C136.807 260.774 137.296 260.96 137.751 261.213C137.993 261.314 138.25 261.372 138.512 261.382C143.202 261.128 147.199 257.822 149.886 252.3C153.638 244.571 152.481 236.233 147.309 233.738C146.629 233.393 145.919 233.11 145.188 232.893C144.349 232.662 143.48 232.56 142.61 232.588C140.581 232.719 138.584 233.17 136.695 233.924L136.45 234.009C132.225 232.157 128.845 232.14 125.625 233.721C120.479 236.258 119.329 244.571 123.081 252.3Z" fill="black"/>
</g>
<path d="M123.174 244.469C122.926 243.986 122.779 243.456 122.743 242.913C122.593 241.605 122.753 240.279 123.209 239.044C123.666 237.808 124.407 236.698 125.371 235.802C125.749 235.412 126.203 235.107 126.706 234.905C126.706 234.956 126.225 235.294 125.549 235.988C124.67 236.898 123.991 237.982 123.554 239.171C123.118 240.359 122.934 241.625 123.014 242.888C123.056 243.86 123.233 244.452 123.174 244.469Z" fill="#FAFAFA"/>
<path d="M124.121 248.148C124.028 248.148 123.859 247.801 123.749 247.302C123.639 246.803 123.631 246.457 123.749 246.406C123.867 246.355 124.011 246.753 124.121 247.251C124.231 247.75 124.222 248.122 124.121 248.148Z" fill="#FAFAFA"/>
<path d="M147.943 220.986C147.943 221.046 146.971 221.418 145.517 222.297C144.666 222.797 143.856 223.363 143.092 223.988C141.22 225.551 139.663 227.457 138.503 229.603C138.027 230.478 137.62 231.388 137.287 232.326C136.72 233.924 136.551 234.981 136.441 234.965C136.438 234.714 136.464 234.465 136.518 234.22C136.558 233.935 136.617 233.652 136.695 233.375C136.776 232.994 136.881 232.618 137.008 232.25C137.31 231.287 137.697 230.353 138.165 229.46C138.751 228.365 139.436 227.326 140.21 226.356C141.004 225.406 141.884 224.531 142.838 223.743C143.632 223.105 144.48 222.539 145.374 222.052C145.706 221.856 146.05 221.68 146.405 221.528C146.678 221.394 146.961 221.278 147.25 221.181C147.47 221.083 147.704 221.018 147.943 220.986Z" fill="#455A64"/>
<path d="M94.5609 244.173C94.76 242.855 94.6976 241.511 94.3772 240.217C94.0568 238.922 93.4848 237.704 92.6937 236.632C91.9027 235.559 90.9081 234.653 89.7669 233.965C88.6257 233.277 87.3602 232.821 86.0428 232.622C85.8012 232.559 85.5449 232.59 85.3245 232.707C85.1993 232.832 85.1085 232.987 85.0611 233.157C85.0137 233.328 85.0113 233.508 85.0541 233.679C85.2915 236.252 86.3392 238.684 88.0462 240.623C89.7532 242.562 92.0314 243.909 94.5524 244.469" fill="#455A64"/>
<path d="M80.398 262.845C82.9331 268.104 86.6175 271.648 91.1554 271.817C92.0596 271.817 92.7441 271.25 93.6145 271.199C94.1216 271.316 94.6106 271.501 95.068 271.749C95.304 271.858 95.5603 271.915 95.8201 271.918C100.519 271.673 104.516 268.367 107.203 262.845C110.955 255.107 109.797 246.778 104.625 244.241C103.945 243.896 103.235 243.613 102.504 243.395C101.665 243.168 100.796 243.068 99.927 243.099C97.8975 243.227 95.901 243.675 94.0117 244.427L93.7582 244.52C89.5329 242.66 86.1527 242.651 82.9415 244.224C77.7952 246.803 76.6459 255.107 80.398 262.845Z" fill="#E96137"/>
<g opacity="0.3">
<path d="M80.398 262.845C82.9331 268.104 86.6175 271.648 91.1554 271.817C92.0596 271.817 92.7441 271.25 93.6145 271.199C94.1216 271.316 94.6106 271.501 95.068 271.749C95.304 271.858 95.5603 271.915 95.8201 271.918C100.519 271.673 104.516 268.367 107.203 262.845C110.955 255.107 109.797 246.778 104.625 244.241C103.945 243.896 103.235 243.613 102.504 243.395C101.665 243.168 100.796 243.068 99.927 243.099C97.8975 243.227 95.901 243.675 94.0117 244.427L93.7582 244.52C89.5329 242.66 86.1527 242.651 82.9415 244.224C77.7952 246.803 76.6459 255.107 80.398 262.845Z" fill="black"/>
</g>
<path d="M80.4909 255.014C80.2442 254.53 80.0976 254.001 80.06 253.458C79.9086 252.15 80.0676 250.824 80.5242 249.588C80.9809 248.352 81.7222 247.242 82.6881 246.347C83.0698 245.961 83.5234 245.653 84.0232 245.442C84.0232 245.501 83.5416 245.831 82.8571 246.533C81.9802 247.445 81.3021 248.529 80.8657 249.716C80.4293 250.904 80.2442 252.17 80.3219 253.433C80.3726 254.405 80.5501 254.997 80.4909 255.014Z" fill="#FAFAFA"/>
<path d="M81.4371 258.684C81.3442 258.684 81.1752 258.346 81.0653 257.839C80.9555 257.331 80.947 256.993 81.0653 256.942C81.1836 256.892 81.3273 257.289 81.4371 257.788C81.547 258.287 81.5386 258.667 81.4371 258.684Z" fill="#FAFAFA"/>
<path d="M105.259 231.523C105.259 231.591 104.287 231.963 102.834 232.834C101.98 233.345 101.169 233.925 100.409 234.567C98.5367 236.13 96.9795 238.036 95.8201 240.182C95.3439 241.053 94.937 241.961 94.6032 242.896C94.037 244.503 93.868 245.552 93.8004 245.543C93.7967 245.293 93.8222 245.043 93.8764 244.799C93.9169 244.514 93.9762 244.231 94.0539 243.953C94.1365 243.576 94.2409 243.203 94.3666 242.837C94.6688 241.872 95.0562 240.935 95.5243 240.038C96.1083 238.945 96.793 237.909 97.5693 236.943C98.3631 235.993 99.2429 235.119 100.197 234.33C100.993 233.696 101.841 233.13 102.733 232.639C103.096 232.419 103.459 232.267 103.764 232.115C104.037 231.983 104.32 231.87 104.609 231.777C104.816 231.67 105.034 231.585 105.259 231.523Z" fill="#455A64"/>
<path d="M0 227.092V271.377C0 271.377 96.6735 298.589 97.2397 298.217C97.8058 297.845 97.2397 253.238 97.2397 253.238L74.9726 249.298L74.5755 265.365L23.7881 251.387L23.6022 235.083L0 227.092Z" fill="#455A64"/>
<path d="M155.582 236.613C155.395 236.701 155.199 236.769 154.999 236.816L153.309 237.307L147.055 239.091C141.782 240.596 134.506 242.753 126.478 245.137C118.45 247.522 111.166 249.636 105.859 251.057C103.214 251.776 101.059 252.342 99.5721 252.748L97.882 253.162C97.686 253.218 97.485 253.255 97.282 253.272C97.4697 253.189 97.665 253.124 97.8651 253.078L99.5552 252.579L105.8 250.803C111.082 249.298 118.349 247.141 126.385 244.748C134.422 242.355 141.698 240.25 146.996 238.829C149.65 238.11 151.796 237.552 153.292 237.189L154.982 236.774C155.176 236.699 155.377 236.646 155.582 236.613Z" fill="#455A64"/>
<path d="M153.968 278.066L97.2397 298.217V253.501L155.582 236.613L153.968 278.066Z" fill="#263238"/>
<path d="M72.7672 277.525L24.498 264.993L24.9206 259.2L72.9869 271.681L72.7672 277.525Z" fill="white"/>
<path d="M175.888 180.329L184.905 217.536L152.016 251.361L158.201 268.392C158.201 268.392 207.907 239.785 210.104 231.421C211.424 226.322 211.742 221.015 211.042 215.794L207.29 176.431L175.888 180.329Z" fill="#AA6550"/>
<path d="M156.858 246.364L150.833 251.995L139.771 251.945L136.053 250.017H121.788C121.788 250.017 120.343 252.063 122.743 253.737C124.991 255.339 127.575 256.407 130.298 256.858C132.191 257.281 135.098 258.058 135.098 258.058L133.72 263.893L124.915 282.015C124.915 282.015 119.177 290.471 118.814 290.564L113.152 292.585C113.152 292.585 116.152 296.813 119.025 295.968C121.898 295.122 122.861 293.93 122.861 293.93C122.861 293.93 127.18 295.367 129.216 293.811C130.18 293.103 131.102 292.341 131.98 291.528C133.417 292.073 135.01 292.03 136.416 291.41C138.453 290.327 144.807 286.133 144.807 286.133L149.709 274.717L159.849 267.42" fill="#AA6550"/>
<path d="M135.622 279.639C135.153 280.462 134.61 281.24 133.999 281.964C132.943 283.36 131.464 285.237 129.639 287.224C127.814 289.211 126.166 290.945 124.907 292.154C124.254 292.839 123.541 293.464 122.777 294.023C123.365 293.284 124.004 292.586 124.687 291.934C125.887 290.666 127.543 288.915 129.309 286.936C131.075 284.958 132.639 283.106 133.763 281.77C134.335 281.019 134.956 280.307 135.622 279.639Z" fill="#723C31"/>
<path d="M139.18 282.649C138.917 283.209 138.579 283.73 138.174 284.197C137.498 285.118 136.526 286.353 135.385 287.664C134.096 289.178 132.707 290.605 131.228 291.934C131.198 291.942 131.167 291.943 131.138 291.937C131.108 291.931 131.08 291.918 131.056 291.899C131.032 291.88 131.013 291.856 131 291.828C130.988 291.8 130.981 291.77 130.983 291.74C130.983 291.663 131.025 291.647 131.033 291.655C131.042 291.663 131.033 291.655 131.033 291.723C131.033 291.79 131.118 291.816 131.16 291.79C131.642 291.173 133.247 289.431 135.081 287.317C137.32 284.763 139.078 282.573 139.18 282.649Z" fill="#723C31"/>
<path d="M141.427 286.04C139.466 288.699 136.794 290.751 133.72 291.959C133.661 291.841 135.605 290.835 137.726 289.194C139.847 287.554 141.326 285.947 141.427 286.04Z" fill="#723C31"/>
<path d="M134.903 263.876C135.265 262.825 135.569 261.755 135.816 260.671C135.918 259.564 135.958 258.452 135.934 257.34C136.32 258.429 136.427 259.597 136.247 260.739C136.067 261.88 135.605 262.959 134.903 263.876Z" fill="#723C31"/>
<path d="M148.957 90.1264L137.422 110.979L121.214 127.892L111.217 114.742L110.887 101.289L110.608 89.9995C110.608 89.9995 95.5919 88.2491 94.8313 73.3239C94.4679 66.1107 94.9158 51.2109 95.4904 37.7232C95.7846 30.7304 98.6988 24.1046 103.653 19.1642C108.607 14.2238 115.239 11.3307 122.228 11.0607L123.673 11.0015C139.23 11.3144 147.664 24.7175 146.92 40.277L148.957 90.1687" fill="#AA6550"/>
<path d="M110.591 89.9742C117.484 89.8464 124.182 87.668 129.833 83.7166C129.833 83.7166 125.65 94.642 110.701 93.864L110.591 89.9742Z" fill="#723C31"/>
<path d="M101.296 46.1963C101.311 46.7526 101.544 47.2808 101.943 47.6679C102.343 48.0551 102.878 48.2705 103.434 48.2681C103.706 48.2794 103.977 48.2362 104.231 48.1409C104.486 48.0457 104.719 47.9004 104.917 47.7137C105.115 47.5269 105.273 47.3024 105.382 47.0534C105.492 46.8044 105.551 46.536 105.555 46.2639C105.542 45.7076 105.312 45.1785 104.914 44.7898C104.516 44.4011 103.982 44.1835 103.425 44.1837C103.153 44.1724 102.88 44.2158 102.625 44.3115C102.369 44.4071 102.135 44.553 101.937 44.7406C101.738 44.9282 101.579 45.1536 101.469 45.4036C101.359 45.6536 101.3 45.9231 101.296 46.1963Z" fill="#263238"/>
<path d="M98.7271 44.1076C98.9975 44.3782 100.569 43.1182 102.859 43.0337C105.149 42.9491 106.882 44.04 107.085 43.744C107.203 43.6172 106.916 43.1267 106.163 42.6193C105.156 41.9766 103.977 41.6579 102.783 41.7061C101.591 41.749 100.443 42.1694 99.5045 42.9068C98.8116 43.4734 98.5919 43.9723 98.7271 44.1076Z" fill="#263238"/>
<path d="M123.622 46.1963C123.638 46.7526 123.87 47.2808 124.269 47.6679C124.669 48.0551 125.204 48.2705 125.76 48.2681C126.032 48.2794 126.303 48.2362 126.558 48.1409C126.812 48.0457 127.045 47.9004 127.243 47.7137C127.441 47.5269 127.599 47.3024 127.709 47.0534C127.818 46.8044 127.877 46.536 127.881 46.2639C127.866 45.7068 127.634 45.1778 127.234 44.7893C126.835 44.4008 126.3 44.1835 125.743 44.1837C125.471 44.1724 125.199 44.2159 124.944 44.3116C124.688 44.4073 124.455 44.5534 124.257 44.7411C124.059 44.9287 123.901 45.1543 123.792 45.4042C123.683 45.6542 123.625 45.9235 123.622 46.1963Z" fill="#263238"/>
<path d="M121.552 42.5855C121.797 42.8815 123.495 41.7991 125.777 41.9682C128.059 42.1373 129.664 43.3973 129.935 43.1352C130.061 43.0168 129.833 42.5009 129.09 41.9175C128.145 41.1611 126.992 40.7125 125.785 40.6321C124.598 40.552 123.415 40.8479 122.405 41.4777C121.687 41.9682 121.433 42.4502 121.552 42.5855Z" fill="#263238"/>
<path d="M113.87 61.7896C113.87 61.6543 112.434 61.4683 110.118 61.2569C109.527 61.2569 108.969 61.1216 108.859 60.7326C108.78 60.1271 108.892 59.5119 109.18 58.9737L110.744 54.4496C112.898 47.9975 114.445 42.7124 114.183 42.6109C113.921 42.5094 111.96 47.6846 109.797 54.1367C109.279 55.7265 108.783 57.243 108.31 58.6862C107.97 59.4068 107.895 60.2243 108.099 60.9947C108.185 61.2036 108.32 61.389 108.492 61.5359C108.664 61.6829 108.868 61.7872 109.087 61.8403C109.416 61.9202 109.755 61.9544 110.093 61.9418C112.391 61.9672 113.862 61.9165 113.87 61.7896Z" fill="#263238"/>
<path d="M120.681 63.1172C120.301 63.1172 120.394 65.6033 118.332 67.4468C116.27 69.2903 113.608 69.1381 113.6 69.4763C113.6 69.637 114.208 69.9414 115.29 69.9245C116.75 69.8932 118.151 69.3449 119.245 68.377C120.293 67.4468 120.941 66.1468 121.053 64.7493C121.146 63.7007 120.842 63.0918 120.681 63.1172Z" fill="#263238"/>
<path d="M120.842 32.6917C121.095 33.309 123.377 32.9285 126.073 33.1483C128.768 33.3682 130.982 33.994 131.32 33.4443C131.464 33.1737 131.067 32.5987 130.163 32.0237C128.969 31.3178 127.625 30.9062 126.242 30.8229C124.858 30.705 123.467 30.9225 122.186 31.4571C121.231 31.8884 120.749 32.4042 120.842 32.6917Z" fill="#263238"/>
<path d="M99.048 39.5751C99.4705 40.0825 101.034 39.4821 102.935 39.3806C104.837 39.2791 106.451 39.6005 106.806 39.0339C106.958 38.7633 106.687 38.2559 105.961 37.7908C104.994 37.2348 103.884 36.979 102.772 37.0558C101.66 37.1326 100.596 37.5385 99.7156 38.2221C99.0649 38.7802 98.8706 39.3299 99.048 39.5751Z" fill="#263238"/>
<path d="M146.126 51.3631C146.379 51.2447 156.266 47.9806 156.334 58.1281C156.401 68.2755 146.126 66.3052 146.109 66.0093C146.092 65.7133 146.126 51.3631 146.126 51.3631Z" fill="#AA6550"/>
<path d="M149.202 62.1532C149.244 62.1532 149.379 62.28 149.683 62.4153C150.112 62.5841 150.589 62.5841 151.019 62.4153C152.092 62.0094 152.987 60.2928 153.03 58.4494C153.045 57.5762 152.869 56.7103 152.514 55.9125C152.417 55.5926 152.242 55.3014 152.007 55.0641C151.771 54.8268 151.481 54.6507 151.162 54.5511C150.957 54.498 150.739 54.5189 150.548 54.6101C150.356 54.7013 150.203 54.857 150.114 55.05C149.979 55.329 150.047 55.5404 149.996 55.5574C149.945 55.5743 149.776 55.3882 149.852 54.9654C149.908 54.7123 150.048 54.4856 150.25 54.3227C150.387 54.2153 150.545 54.1362 150.713 54.0897C150.881 54.0433 151.057 54.0305 151.23 54.0521C151.65 54.1346 152.042 54.322 152.37 54.597C152.698 54.8721 152.951 55.2257 153.106 55.625C153.546 56.5092 153.763 57.4874 153.74 58.4748C153.689 60.5296 152.649 62.4661 151.204 62.9058C150.93 62.9847 150.642 63.0021 150.36 62.9567C150.078 62.9114 149.809 62.8045 149.573 62.6437C149.227 62.3984 149.168 62.1701 149.202 62.1532Z" fill="#723C31"/>
<path d="M93.1581 20.3372C93.5299 18.35 94.9242 16.3966 96.9185 16.0245C96.4704 15.0819 96.3521 14.0158 96.5828 12.9978C96.8135 11.9798 97.3797 11.069 98.1904 10.4121C99.001 9.75511 100.009 9.39014 101.052 9.37588C102.095 9.36163 103.113 9.69892 103.941 10.3335C103.696 7.22159 107.422 4.56634 110.279 5.81786C110.187 4.90855 110.407 3.99506 110.903 3.2276C111.399 2.46014 112.141 1.88441 113.007 1.59511C113.874 1.3058 114.813 1.32014 115.67 1.63576C116.527 1.95138 117.251 2.54949 117.724 3.33173C119.718 -0.414377 125.676 -1.13315 128.498 2.02947C130.543 1.27811 132.793 1.30584 134.819 2.1074C136.845 2.90895 138.505 4.4283 139.484 6.37597C141.155 6.43177 142.772 6.98549 144.126 7.96622C145.481 8.94695 146.513 10.31 147.089 11.881C148.169 11.9266 149.218 12.2562 150.131 12.8366C151.043 13.417 151.786 14.2278 152.286 15.1872C152.785 16.1466 153.023 17.2208 152.976 18.3016C152.928 19.3824 152.597 20.4315 152.016 21.3435C152.64 21.6677 153.181 22.1323 153.596 22.7008C154.011 23.2692 154.288 23.9261 154.407 24.62C154.526 25.3138 154.482 26.0257 154.28 26.6999C154.078 27.3741 153.722 27.9923 153.241 28.5059C154.018 28.8501 154.682 29.4087 155.154 30.1162C155.626 30.8238 155.887 31.6511 155.906 32.5016C155.926 33.3521 155.703 34.1905 155.264 34.919C154.825 35.6475 154.188 36.2359 153.427 36.6154C154.94 36.7423 155.616 38.7041 155.227 40.167C154.838 41.63 153.79 42.8392 153.249 44.2514C152.81 45.4183 152.717 46.6952 152.345 47.8876C151.98 49.0059 151.377 50.0317 150.577 50.8945C149.778 51.7572 148.801 52.4364 147.714 52.8852L147.993 53.1812C148.314 54.475 146.523 55.4474 145.272 54.9739C144.022 54.5003 143.278 53.2826 142.526 52.158C141.574 50.9647 140.816 49.6293 140.278 48.2004C139.847 46.7375 140.193 44.8941 141.529 44.133C140.656 43.8098 139.884 43.262 139.291 42.5449C138.697 41.8278 138.303 40.9668 138.148 40.0486C137.853 38.211 137.887 36.3354 138.25 34.5098C138.63 31.7869 139.002 29.0725 139.382 26.358C137.523 26.3584 135.699 25.8505 134.107 24.8893C132.515 23.928 131.215 22.55 130.349 20.9038C129.689 21.3985 128.932 21.7479 128.128 21.9289C127.323 22.1099 126.49 22.1183 125.682 21.9538C124.874 21.7892 124.11 21.4554 123.441 20.9741C122.771 20.4929 122.211 19.8752 121.797 19.1618C121.21 21.0004 119.947 22.5472 118.264 23.4892C116.58 24.4312 114.602 24.698 112.729 24.2355C113.219 26.3327 109.501 28.4636 107.448 29.0809C105.394 29.6982 102.732 28.3537 102.732 28.3537C102.732 28.3537 99.2424 30.603 97.2565 29.9012C95.2707 29.1993 92.6257 26.8485 93.8087 24.7767C93.2396 23.3704 93.0165 21.8478 93.1581 20.3372Z" fill="#263238"/>
<path d="M153.799 28.4552C153.697 28.4552 153.664 29.1655 152.835 29.8166C152.601 30.0036 152.326 30.1337 152.033 30.1968C151.74 30.2599 151.436 30.2542 151.145 30.1802C150.797 30.0918 150.477 29.9132 150.219 29.6624C149.961 29.4116 149.774 29.0974 149.675 28.7511L149.531 28.1423L149.075 28.582C148.703 28.9162 148.247 29.1436 147.756 29.2404C147.265 29.3371 146.758 29.2996 146.286 29.1317C145.766 28.9192 145.324 28.5506 145.022 28.0767C144.719 27.6028 144.57 27.0467 144.596 26.4849V25.876L144.055 26.1297C143.468 26.4051 142.801 26.4565 142.178 26.2744C141.556 26.0922 141.022 25.6889 140.675 25.1403C140.424 24.6756 140.231 24.1813 140.101 23.6689C140.05 23.6689 139.813 24.3285 140.303 25.3602C140.611 25.9722 141.118 26.4612 141.74 26.747C142.149 26.9219 142.588 27.0121 143.033 27.0121C143.477 27.0121 143.917 26.9219 144.326 26.747L143.827 26.3918C143.771 27.0806 143.927 27.77 144.274 28.3675C144.621 28.965 145.142 29.4418 145.768 29.7337C146.394 30.0257 147.094 30.1189 147.774 30.0006C148.455 29.8824 149.083 29.5585 149.574 29.0725L148.974 28.9033C149.111 29.3737 149.375 29.7971 149.738 30.1268C150.1 30.4565 150.546 30.6798 151.027 30.7722C151.396 30.8411 151.777 30.8211 152.137 30.7138C152.497 30.6064 152.826 30.4148 153.097 30.1549C153.993 29.2585 153.799 28.4213 153.799 28.4552Z" fill="#455A64"/>
<path d="M155.692 38.1798C155.35 38.372 154.991 38.5306 154.619 38.6534C154.134 38.7728 153.625 38.7422 153.159 38.5655C152.693 38.3888 152.291 38.0744 152.007 37.664L151.796 37.3173L151.526 37.6217C151.211 37.9683 150.813 38.2281 150.369 38.3762C149.925 38.5243 149.45 38.5557 148.991 38.4673C148.459 38.3343 147.981 38.0404 147.623 37.6258C147.265 37.2111 147.043 36.6958 146.988 36.1503L146.929 35.4823L146.371 35.8713C146.233 35.975 146.079 36.055 145.915 36.108C145.547 36.236 145.148 36.2462 144.774 36.137C144.4 36.0279 144.069 35.805 143.827 35.4992C143.618 35.2076 143.493 34.8645 143.465 34.5068C143.436 34.1492 143.506 33.7906 143.667 33.4697L144.022 32.8186L143.303 32.9623C142.567 33.1033 141.805 32.9806 141.15 32.6158C140.495 32.2509 139.989 31.6672 139.72 30.9667C139.543 30.3902 139.441 29.7934 139.416 29.1909C139.374 29.1909 139.002 29.8674 139.332 31.0935C139.535 31.8355 139.981 32.4877 140.599 32.9454C141.001 33.245 141.458 33.4607 141.944 33.5798C142.431 33.699 142.936 33.719 143.43 33.6388L143.067 33.1315C142.826 33.5665 142.713 34.0605 142.739 34.5571C142.766 35.0536 142.932 35.5325 143.219 35.9389C143.55 36.3825 144.013 36.7087 144.542 36.8699C145.071 37.0312 145.638 37.019 146.16 36.8353C146.399 36.7605 146.625 36.6462 146.827 36.497L146.219 36.218C146.292 36.9224 146.584 37.5862 147.054 38.1156C147.524 38.6451 148.148 39.0136 148.838 39.1692C149.414 39.2771 150.008 39.2307 150.56 39.0347C151.112 38.8386 151.603 38.5 151.982 38.053H151.5C151.695 38.3404 151.944 38.5863 152.234 38.7765C152.524 38.9666 152.849 39.0972 153.19 39.1607C153.692 39.2635 154.213 39.2254 154.695 39.0508C155.489 38.6703 155.726 38.1967 155.692 38.1798Z" fill="#455A64"/>
<path d="M111.639 5.47117C111.966 5.16616 112.347 4.92522 112.763 4.76084C113.243 4.58348 113.771 4.58348 114.25 4.76084C114.562 4.88461 114.84 5.0776 115.066 5.32521C115.291 5.57281 115.458 5.86853 115.552 6.18995L115.712 6.77342L116 6.23223C116.311 5.68304 116.757 5.22193 117.295 4.89211C117.833 4.56228 118.445 4.37455 119.076 4.34649C119.835 4.33794 120.579 4.56844 121.2 5.00544C121.822 5.44244 122.291 6.06384 122.54 6.78188L122.76 7.44147L123.166 6.86644C123.569 6.32154 124.09 5.87447 124.69 5.5583C125.29 5.24213 125.953 5.06496 126.63 5.0399C127.355 5.01898 128.072 5.18074 128.718 5.51028C129.363 5.83982 129.915 6.32654 130.323 6.92564C130.672 7.41058 130.914 7.96393 131.033 8.54923L131.118 8.96358L131.523 8.8452C132.47 8.59494 133.473 8.67072 134.371 9.06034C135.27 9.44996 136.011 10.1307 136.475 10.9931C136.855 11.7594 137.006 12.6186 136.912 13.4686C136.818 14.3185 136.481 15.1235 135.943 15.7878L135.563 16.2275L136.129 16.3036C137.231 16.4552 138.246 16.9895 138.995 17.8133C139.744 18.6371 140.18 19.698 140.227 20.8108C140.231 21.6757 140.083 22.5345 139.788 23.3476C139.788 23.3476 139.965 23.1785 140.16 22.7726C140.431 22.169 140.572 21.5149 140.574 20.853C140.596 19.7925 140.28 18.7524 139.67 17.8849C138.851 16.7373 137.611 15.9617 136.222 15.7286L136.408 16.2444C137.118 15.4424 137.548 14.4314 137.635 13.3635C137.721 12.2956 137.459 11.2284 136.887 10.3225C136.315 9.41667 135.465 8.72104 134.464 8.34024C133.463 7.95945 132.366 7.91409 131.337 8.21098L131.827 8.45621C131.586 7.2677 130.933 6.20253 129.984 5.44784C129.035 4.69314 127.851 4.2972 126.639 4.32958C125.85 4.36764 125.08 4.58364 124.386 4.96144C123.693 5.33924 123.094 5.86906 122.633 6.51128L123.259 6.6043C122.958 5.74731 122.39 5.0099 121.638 4.50121C120.886 3.99253 119.991 3.73962 119.084 3.77992C118.358 3.8288 117.656 4.06468 117.048 4.46471C116.439 4.86474 115.944 5.41534 115.611 6.0631H116.059C115.933 5.68082 115.72 5.33297 115.437 5.04686C115.154 4.76075 114.809 4.54418 114.428 4.41414C113.873 4.23683 113.272 4.26687 112.738 4.4987C112.41 4.64022 112.12 4.85758 111.893 5.13292C111.665 5.34432 111.622 5.46271 111.639 5.47117Z" fill="#455A64"/>
<path d="M305.4 119.233C305.4 119.233 331.377 127.892 336.405 132.391C341.433 136.889 345.7 164.178 345.7 164.178L346.757 186.696H321.321L313.944 250.372L227.605 245.763L235.548 180.075L200.606 174.063C200.606 174.063 214.372 136.627 218.081 132.627C218.081 132.627 229.988 124.949 232.109 124.949C233.45 124.937 234.784 124.758 236.081 124.416C236.081 124.416 242.959 122.032 244.024 120.713C245.089 119.393 248.52 118.328 248.52 118.328L253.59 110.912L294.076 108.536C294.076 108.536 299.375 109.855 300.964 110.92C302.552 111.986 305.4 119.233 305.4 119.233Z" fill="#263238"/>
<path d="M290.891 135.3C290.785 135.456 290.663 135.6 290.527 135.731L289.446 136.898C288.508 137.913 287.164 139.435 285.592 141.303C281.428 146.231 278.012 151.744 275.452 157.666L275.384 157.818H275.223H275.021L264.398 156.449H264.179L264.229 156.229C265.182 152.258 266.836 148.489 269.114 145.1C269.77 144.102 270.487 143.144 271.26 142.234C271.514 141.921 271.733 141.692 271.877 141.54C272.021 141.388 272.097 141.312 272.105 141.32C271.876 141.663 271.627 141.994 271.362 142.31C270.863 142.952 270.162 143.9 269.359 145.143C267.18 148.546 265.594 152.294 264.669 156.229L264.5 155.983L275.097 157.286H275.291L275.063 157.421C277.629 151.46 281.101 145.932 285.356 141.033C286.97 139.147 288.347 137.65 289.327 136.703C289.809 136.213 290.172 135.858 290.468 135.596C290.598 135.482 290.739 135.382 290.891 135.3Z" fill="#455A64"/>
<path d="M267.424 140.585C267.424 140.585 267.238 140.585 266.934 140.509C266.502 140.46 266.065 140.545 265.683 140.754C265.388 140.922 265.148 141.171 264.992 141.473C264.835 141.774 264.768 142.114 264.799 142.452C264.83 142.79 264.958 143.112 265.167 143.379C265.377 143.646 265.658 143.847 265.979 143.959C266.331 144.08 266.712 144.084 267.067 143.972C267.421 143.859 267.73 143.635 267.948 143.333C268.125 143.077 268.236 142.78 268.272 142.47C268.307 142.161 268.265 141.847 268.151 141.557C267.964 141.159 267.671 140.82 267.306 140.576C267.052 140.39 266.891 140.306 266.9 140.28C266.908 140.255 267.094 140.28 267.398 140.432C267.835 140.65 268.192 140.999 268.421 141.43C268.58 141.767 268.649 142.14 268.622 142.511C268.596 142.883 268.474 143.242 268.269 143.553C268.072 143.846 267.806 144.086 267.494 144.252C267.182 144.418 266.835 144.505 266.482 144.505C266.129 144.505 265.781 144.418 265.469 144.252C265.158 144.086 264.892 143.846 264.694 143.553C264.465 143.171 264.35 142.73 264.365 142.284C264.374 141.91 264.488 141.546 264.692 141.232C264.897 140.919 265.184 140.668 265.522 140.509C265.968 140.297 266.473 140.249 266.951 140.373C267.289 140.441 267.432 140.568 267.424 140.585Z" fill="#455A64"/>
<path d="M250.404 115.546C250.404 115.546 250.345 115.681 250.202 115.918L249.559 116.958C248.788 118.264 248.116 119.627 247.548 121.034C246.701 123.162 246.116 125.385 245.807 127.655C245.382 130.486 245.601 133.377 246.45 136.111H246.044C246.762 134.158 247.514 132.086 248.292 129.964C248.469 129.507 248.613 129.05 248.841 128.585C248.941 128.334 249.094 128.108 249.29 127.921C249.485 127.734 249.718 127.592 249.973 127.503C250.497 127.381 251.047 127.473 251.503 127.757C251.919 128.003 252.312 128.286 252.678 128.602C254.131 129.727 255.559 130.792 256.903 131.782C259.649 133.761 262.184 135.469 264.339 136.856C266.494 138.242 268.26 139.333 269.486 140.077L270.897 140.923C271.067 141.013 271.226 141.124 271.37 141.253C271.192 141.181 271.02 141.096 270.855 140.999C270.517 140.83 270.01 140.568 269.401 140.213C268.142 139.511 266.35 138.471 264.17 137.118C261.99 135.765 259.438 134.073 256.666 132.103C255.289 131.114 253.852 130.057 252.382 128.932C252.032 128.642 251.659 128.382 251.266 128.154C250.91 127.936 250.486 127.858 250.075 127.934C249.885 128.011 249.712 128.126 249.566 128.271C249.421 128.416 249.307 128.589 249.23 128.78C249.027 129.186 248.883 129.625 248.706 130.116L246.45 136.255L246.238 136.822L246.044 136.255C245.18 133.442 244.972 130.468 245.436 127.562C245.773 125.266 246.397 123.022 247.295 120.882C247.889 119.475 248.605 118.123 249.433 116.84C249.728 116.391 249.973 116.062 250.142 115.833C250.22 115.729 250.308 115.633 250.404 115.546Z" fill="#455A64"/>
<path d="M275.528 141.583C275.66 141.489 275.805 141.415 275.959 141.363L277.218 140.805L281.891 138.817C285.854 137.177 291.305 134.894 297.389 132.467C299.258 131.727 301.182 131.136 303.144 130.699C304.063 130.494 305 130.377 305.941 130.353C306.398 130.346 306.855 130.392 307.302 130.488C307.787 130.561 308.224 130.822 308.519 131.215L308.155 131.334C307.31 127.79 306.659 124.805 306.161 122.649L305.628 120.197C305.55 119.921 305.502 119.637 305.485 119.351C305.593 119.626 305.681 119.909 305.747 120.197L306.381 122.615C306.913 124.772 307.648 127.74 308.527 131.274L308.797 132.331L308.164 131.393C307.91 131.126 307.573 130.953 307.209 130.902C306.792 130.814 306.367 130.777 305.941 130.792C305.028 130.82 304.119 130.936 303.229 131.139C301.29 131.581 299.389 132.172 297.541 132.906L282.009 139.139L277.286 140.982L275.993 141.464C275.844 141.526 275.688 141.565 275.528 141.583Z" fill="#455A64"/>
<path d="M335.087 132.932C335.087 133.016 333.633 132.374 331.2 131.883C328.025 131.236 324.748 131.291 321.596 132.043C318.445 132.795 315.496 134.227 312.955 136.238C311.003 137.777 310.023 138.986 309.955 138.927C310.148 138.623 310.372 138.34 310.623 138.082C311.28 137.336 311.995 136.644 312.761 136.01C315.292 133.892 318.28 132.389 321.49 131.621C324.699 130.852 328.043 130.837 331.259 131.579C332.225 131.788 333.174 132.071 334.098 132.424C334.446 132.555 334.778 132.726 335.087 132.932Z" fill="#455A64"/>
<path d="M237.839 144.838C237.855 144.973 237.855 145.109 237.839 145.244C237.788 145.548 237.737 145.929 237.67 146.377C237.509 147.367 237.298 148.796 237.061 150.605C236.453 155.217 236.09 159.857 235.971 164.507C235.872 169.154 236.021 173.804 236.419 178.435C236.571 180.211 236.715 181.657 236.833 182.663L236.943 183.804C236.961 183.939 236.961 184.076 236.943 184.21C236.891 184.087 236.859 183.955 236.85 183.821L236.613 182.654C236.453 181.665 236.258 180.227 236.064 178.426C235.08 169.135 235.299 159.756 236.715 150.521C236.985 148.753 237.247 147.324 237.458 146.352C237.56 145.904 237.636 145.506 237.703 145.227C237.725 145.091 237.771 144.959 237.839 144.838Z" fill="#455A64"/>
<path d="M236.563 142.656C234.911 138.195 231.894 134.369 227.943 131.723C228.603 131.968 229.221 132.313 229.777 132.746C232.572 134.715 234.733 137.457 235.996 140.635C236.291 141.275 236.482 141.957 236.563 142.656Z" fill="#455A64"/>
<path d="M306.803 167.788C306.76 167.46 306.76 167.127 306.803 166.799C306.803 166.156 306.854 165.235 306.955 164.093C307.471 158.158 308.811 152.323 310.935 146.758C311.341 145.692 311.704 144.847 311.975 144.221C312.091 143.921 312.244 143.637 312.431 143.375C312.364 143.701 312.262 144.018 312.127 144.322C311.907 144.923 311.595 145.785 311.223 146.859C310.253 149.655 309.432 152.5 308.764 155.383C308.112 158.267 307.61 161.183 307.259 164.118C307.124 165.251 307.031 166.165 306.972 166.799C306.949 167.134 306.892 167.465 306.803 167.788Z" fill="#455A64"/>
<path d="M317.924 248.884L326.907 279.639L334.664 366.197L315.228 350.028L317.924 248.884Z" fill="#263238"/>
<path d="M232.388 162.359C232.388 162.359 219.805 239.032 220.169 241.501C221.081 247.75 227.428 248.926 227.428 248.926L312.448 246.473C312.448 246.473 322.512 247.683 321.887 234.897C321.042 217.452 318.549 196.945 318.549 194.806L232.388 162.359Z" fill="#263238"/>
<path d="M240.5 162.216C240.347 163.115 240.129 164.002 239.85 164.871C239.41 166.503 238.81 168.761 238.16 171.255C237.509 173.75 237.01 176.033 236.63 177.682C236.469 178.582 236.243 179.47 235.954 180.337C235.997 179.421 236.122 178.509 236.326 177.614C236.63 175.923 237.103 173.657 237.729 171.154C238.354 168.651 239.013 166.402 239.529 164.786C239.769 163.9 240.094 163.039 240.5 162.216Z" fill="#263238"/>
<path d="M318.507 250.676L315.946 242.854L307.158 183.238L306.296 130.277L300.009 131.655L299.848 165.378L248.926 169.446L254.326 130.513L250.819 127.909H249.881L249.213 128.509L239.774 173.784L227.605 245.755L224.14 246.431L221.935 265.043L208.828 366.197H334.664L318.507 250.676Z" fill="#E96137"/>
<g opacity="0.3">
<path d="M227.96 241.594C235.168 246.194 244.396 246.516 252.779 244.825C261.162 243.133 269.063 239.641 277.209 237.045C285.356 234.449 294.11 232.741 302.443 234.762C304.271 235.325 306.142 235.741 308.037 236.005C308.988 236.125 309.953 236.042 310.87 235.761C311.786 235.479 312.632 235.006 313.352 234.373C315.194 232.512 315.118 229.299 313.783 227.092C312.448 224.885 310.116 223.371 307.749 222.263C301.707 219.439 294.955 218.483 288.313 218.28C268.197 217.736 248.44 223.687 231.966 235.252C229.659 236.876 227.2 239.074 227.343 241.89" fill="black"/>
</g>
<path d="M285.118 175.937L302.328 174.806L302.013 170.004L284.802 171.136L285.118 175.937Z" fill="#FAFAFA"/>
<path d="M292.429 247.64C292.345 247.836 292.243 248.022 292.125 248.199L291.17 249.746C290.764 250.423 290.24 251.234 289.598 252.156C288.956 253.078 288.263 254.143 287.401 255.268C286.539 256.393 285.635 257.644 284.57 258.921C283.505 260.198 282.364 261.551 281.13 262.955C275.711 269.009 269.595 274.402 262.911 279.021C261.365 280.062 259.903 281.068 258.466 281.914C257.03 282.759 255.72 283.605 254.486 284.256C253.252 284.907 252.112 285.524 251.106 286.04C250.1 286.556 249.238 286.97 248.512 287.292L246.821 288.036C246.631 288.131 246.433 288.21 246.23 288.273C246.404 288.149 246.591 288.044 246.788 287.96L248.402 287.114C249.112 286.767 249.974 286.336 250.937 285.795C251.9 285.254 253.058 284.687 254.266 283.96C255.475 283.233 256.802 282.48 258.213 281.584C259.624 280.687 261.077 279.706 262.615 278.666C265.914 276.336 269.092 273.842 272.139 271.191C275.35 268.341 278.24 265.441 280.767 262.735C281.992 261.34 283.184 260.029 284.223 258.735C285.263 257.441 286.226 256.249 287.08 255.133C287.933 254.016 288.668 252.968 289.327 252.063C289.987 251.158 290.527 250.372 290.958 249.704L291.981 248.199C292.113 248 292.263 247.813 292.429 247.64Z" fill="#263238"/>
<g opacity="0.3">
<path d="M248.816 287.241C250.793 278.785 256.692 271.673 263.672 266.523C270.652 261.373 280.75 256.562 288.736 253.188C278.452 266.354 266.477 278.091 248.816 287.241Z" fill="black"/>
</g>
<path d="M346.732 186.68C346.732 186.68 342.439 170.807 326.822 171.247C311.206 171.687 307.386 177.801 307.386 177.801L306.237 191.863C306.237 191.863 290.029 196.337 282.077 197.301C274.125 198.265 238.929 192.481 238.929 192.481L233.994 192.768L228.315 204.852C228.315 204.852 243.991 210.086 246.154 211.05C248.317 212.014 303.051 233.73 316.293 232.039C329.535 230.347 328.343 228.656 328.343 228.656C328.343 228.656 337.985 216.691 341.602 201.681C345.219 186.671 346.732 186.68 346.732 186.68Z" fill="#B78876"/>
<path d="M280.809 197.656C281.293 197.496 281.787 197.369 282.288 197.275L286.344 196.303L299.688 192.92L313.006 189.47L317.028 188.379C317.512 188.219 318.006 188.092 318.507 187.999C318.393 188.067 318.271 188.121 318.144 188.159C317.907 188.252 317.544 188.396 317.079 188.548C316.141 188.853 314.78 189.276 313.082 189.766C309.702 190.747 305.003 192.015 299.798 193.351C294.592 194.688 289.851 195.812 286.412 196.582C284.722 196.962 283.294 197.25 282.322 197.427C281.84 197.52 281.477 197.571 281.206 197.605C281.076 197.635 280.943 197.652 280.809 197.656Z" fill="#995037"/>
<path d="M235.54 179.128C235.54 179.128 231.315 174.528 221.96 173.564C212.606 172.6 200.606 174.046 200.606 174.046C200.606 174.046 195.493 193.343 194.919 201.689C194.344 210.036 197.023 232.487 199.33 234.592C201.637 236.698 203.352 236.326 204.316 236.131C206.17 236.07 208.027 236.121 209.876 236.284C209.876 236.284 233.656 244.19 258.585 237.087C283.513 229.984 291.871 227.312 291.871 227.312L248.157 211.862L228.332 204.852C228.332 204.852 236.782 191.094 235.98 181.707" fill="#B78876"/>
<path d="M211.042 199.271H211.253L211.887 199.415L212.91 199.66L214.287 200.066C216.366 200.666 219.357 201.63 223 202.848C230.326 205.292 240.399 208.767 251.503 212.725C262.607 216.682 272.629 220.285 279.897 222.923L288.474 226.069L290.806 226.914L291.406 227.151C291.541 227.202 291.609 227.236 291.601 227.244L291.389 227.193L290.772 226.999L288.415 226.204L279.787 223.244L251.359 213.164C240.255 209.232 230.233 205.681 222.898 203.169C219.256 201.918 216.298 200.903 214.236 200.252L212.876 199.812L211.87 199.525L211.245 199.339C211.11 199.305 211.034 199.279 211.042 199.271Z" fill="#995037"/>
<path d="M235.447 178.781C235.601 179.107 235.715 179.451 235.785 179.805C236.014 180.762 236.15 181.739 236.191 182.722C236.268 185.971 235.693 189.203 234.501 192.227C233.314 195.224 231.966 198.154 230.461 201.004L229.16 203.617C229.025 203.95 228.855 204.267 228.653 204.564C228.733 204.214 228.852 203.874 229.008 203.55C229.261 202.907 229.667 201.994 230.182 200.869C231.205 198.62 232.777 195.592 234.095 192.075C235.259 189.096 235.866 185.929 235.886 182.73C235.827 181.406 235.68 180.087 235.447 178.781Z" fill="#995037"/>
<path d="M295.631 80.1227C297.626 74.2034 299.595 68.284 300.541 62.1532C301.488 56.0225 301.386 49.5873 299.291 43.7356C298.978 42.89 296.248 36.886 295.31 36.9706C294.643 37.0298 296.299 42.5771 295.953 43.1521C292.648 48.674 291.685 55.3375 292.125 61.7558C292.607 67.9896 293.783 74.1501 295.631 80.1227Z" fill="#263238"/>
<path d="M278.223 131.917C282.85 131.865 287.273 130.006 290.55 126.738C293.827 123.47 295.699 119.05 295.767 114.421L296.519 56.4115C297.212 40.8267 288.736 27.4405 273.153 27.1699L271.708 27.2291C264.723 27.5352 258.107 30.4562 253.172 35.4132C248.237 40.3702 245.343 47.0015 245.064 53.993C244.531 67.5229 244.117 82.4228 244.506 89.6444C245.309 104.587 260.351 106.295 260.351 106.295C260.351 106.295 260.393 109.762 260.351 114.151C260.351 116.493 260.814 118.811 261.713 120.974C262.612 123.136 263.93 125.099 265.59 126.749C267.251 128.4 269.221 129.706 271.388 130.591C273.554 131.476 275.875 131.924 278.215 131.909L278.223 131.917Z" fill="#B78876"/>
<path d="M260.325 106.295C267.226 105.989 273.894 103.712 279.542 99.7327C279.542 99.7327 275.24 110.776 260.275 110.075L260.325 106.295Z" fill="#995037"/>
<path d="M250.76 63.2525C250.777 63.8096 251.011 64.3378 251.412 64.7247C251.813 65.1117 252.349 65.3268 252.906 65.3243C253.178 65.3345 253.449 65.2902 253.704 65.194C253.959 65.0978 254.192 64.9518 254.389 64.7643C254.587 64.5768 254.745 64.3518 254.855 64.1024C254.964 63.8529 255.023 63.5841 255.027 63.3117C255.009 62.7547 254.775 62.2265 254.374 61.8395C253.974 61.4526 253.438 61.2375 252.881 61.24C252.609 61.2298 252.337 61.2741 252.082 61.3702C251.828 61.4664 251.595 61.6125 251.397 61.8C251.2 61.9874 251.041 62.2125 250.932 62.4619C250.822 62.7113 250.764 62.9801 250.76 63.2525Z" fill="#263238"/>
<path d="M248.486 60.0391C248.765 60.3013 250.328 59.0413 252.627 58.9483C254.925 58.8553 256.649 59.9461 256.852 59.6502C256.97 59.5233 256.683 59.0329 255.923 58.5255C254.902 57.8778 253.707 57.5618 252.5 57.6207C251.327 57.6873 250.205 58.1189 249.289 58.8553C248.571 59.4303 248.351 59.9461 248.486 60.0391Z" fill="#263238"/>
<path d="M273.077 63.2526C273.095 63.8096 273.329 64.3378 273.73 64.7248C274.131 65.1117 274.667 65.3268 275.224 65.3243C275.496 65.3345 275.767 65.2902 276.022 65.194C276.276 65.0979 276.509 64.9518 276.707 64.7643C276.905 64.5769 277.063 64.3518 277.172 64.1024C277.282 63.853 277.34 63.5842 277.345 63.3118C277.327 62.7547 277.093 62.2265 276.692 61.8396C276.291 61.4526 275.755 61.2375 275.198 61.24C274.926 61.2286 274.654 61.2721 274.399 61.3679C274.144 61.4636 273.91 61.6096 273.712 61.7973C273.514 61.985 273.356 62.2105 273.247 62.4605C273.138 62.7105 273.08 62.9798 273.077 63.2526Z" fill="#263238"/>
<path d="M271.015 60.0391C271.286 60.3013 272.857 59.0413 275.156 58.9483C277.454 58.8553 279.178 59.9461 279.381 59.6502C279.5 59.5233 279.212 59.0329 278.452 58.5255C277.431 57.8778 276.236 57.5618 275.029 57.6207C273.833 57.666 272.682 58.0893 271.742 58.8299C271.1 59.4303 270.88 59.9461 271.015 60.0391Z" fill="#263238"/>
<path d="M263.503 78.0594C263.503 77.9241 262.075 77.738 259.751 77.5351C259.159 77.5351 258.601 77.4082 258.483 77.0108C258.413 76.4056 258.525 75.7933 258.804 75.2519L260.351 70.7194C262.497 64.2588 264.027 58.9568 263.731 58.8807C263.435 58.8045 261.517 63.9544 259.379 70.4234C258.863 72.0132 258.365 73.5353 257.9 74.9813C257.563 75.7057 257.488 76.5249 257.689 77.2983C257.781 77.5069 257.919 77.6916 258.093 77.8382C258.268 77.9848 258.473 78.0894 258.694 78.1439C259.021 78.2192 259.356 78.2533 259.692 78.2454C262.058 78.2369 263.503 78.1862 263.503 78.0594Z" fill="#263238"/>
<path d="M270.331 79.3701C269.95 79.3701 270.052 81.8562 267.99 83.7081C265.928 85.56 263.266 85.3994 263.266 85.7545C263.266 85.9152 263.875 86.2112 264.956 86.2027C266.417 86.1603 267.816 85.6067 268.911 84.6383C269.955 83.6988 270.599 82.3943 270.711 80.9937C270.804 79.9536 270.5 79.3447 270.331 79.3701Z" fill="#263238"/>
<path d="M270.753 50.7374C271.007 51.3462 273.288 50.9572 275.992 51.1686C278.697 51.38 280.911 52.0142 281.24 51.4561C281.392 51.1771 280.987 50.6105 280.083 50.0439C278.889 49.332 277.541 48.92 276.153 48.8432C274.768 48.7342 273.378 48.9574 272.097 49.4943C271.125 49.934 270.643 50.4414 270.753 50.7374Z" fill="#263238"/>
<path d="M249.12 52.4286C249.543 52.936 251.106 52.3271 253.007 52.2256C254.909 52.1242 256.531 52.4286 256.878 51.8705C257.03 51.5914 256.759 51.0841 256.033 50.619C255.069 50.0509 253.953 49.7967 252.838 49.8917C251.722 49.9603 250.654 50.3706 249.779 51.0671C249.129 51.583 248.934 52.1411 249.12 52.4286Z" fill="#263238"/>
<path d="M295.767 67.5314C296.02 67.4045 305.907 64.0643 306.009 74.2964C306.11 84.5284 295.809 82.5158 295.792 82.2283C295.775 81.9408 295.767 67.5314 295.767 67.5314Z" fill="#B78876"/>
<path d="M298.876 78.3215C298.927 78.3215 299.062 78.4399 299.358 78.5752C299.786 78.7482 300.265 78.7482 300.693 78.5752C301.775 78.1693 302.662 76.4442 302.696 74.6008C302.713 73.7266 302.534 72.8598 302.172 72.0639C302.075 71.744 301.9 71.4528 301.665 71.2155C301.429 70.9782 301.139 70.8021 300.82 70.7025C300.615 70.6511 300.398 70.6728 300.207 70.7638C300.016 70.8548 299.862 71.0095 299.772 71.2014C299.637 71.4889 299.705 71.6918 299.654 71.7088C299.603 71.7257 299.434 71.5396 299.51 71.1168C299.566 70.8637 299.706 70.637 299.907 70.4741C300.187 70.2597 300.538 70.1627 300.888 70.2035C301.308 70.286 301.7 70.4734 302.028 70.7484C302.356 71.0235 302.609 71.3771 302.764 71.7764C303.209 72.6558 303.43 73.632 303.406 74.6177C303.364 76.681 302.324 78.6259 300.871 79.0657C300.597 79.1481 300.309 79.1681 300.027 79.1242C299.744 79.0803 299.475 78.9736 299.24 78.812C298.902 78.5667 298.843 78.3384 298.876 78.3215Z" fill="#995037"/>
<path d="M251.647 37.0298C249.957 36.1165 254.951 30.7553 259.024 28.9034C265.167 26.1044 274.556 24.3877 280.226 25.986C287.046 27.9055 292.724 31.288 296.147 37.5287C299.569 43.7694 300.871 50.9826 300.676 58.0858C300.617 60.2506 300.397 62.5084 299.24 64.3349C297.812 66.6012 295.074 68.0303 295.192 71.1506C295.23 71.7148 295.157 72.2809 294.975 72.8164C294.794 73.3519 294.509 73.8463 294.136 74.271C292.26 76.2667 289.97 74.3978 288.922 72.5205C286.665 68.5123 286.387 63.7261 286.218 59.1344C286.074 55.8703 285.939 52.5385 286.86 49.4012C287.358 47.71 288.161 46.078 288.55 44.3275C288.797 43.4784 288.86 42.5861 288.733 41.7108C288.606 40.8355 288.293 39.9976 287.815 39.2538C287.561 38.9456 287.278 38.6624 286.97 38.4082C285.55 37.1645 283.825 36.3199 281.973 35.9604C280.12 35.6009 278.205 35.7394 276.423 36.3618C270.66 38.4082 260.832 41.4355 258.263 39.499C254.562 36.6915 253.675 34.8565 253.675 34.8565L251.647 37.0298Z" fill="#263238"/>
<path d="M260.275 110.523C260.275 110.523 259.573 121.88 259.429 122.471C259.286 123.063 274.319 140.373 274.319 140.373C274.319 140.373 293.595 127.503 294.651 125.237C295.707 122.97 295.859 108.561 295.859 108.561L260.275 110.523Z" fill="#B78876"/>
</g>
<defs>
<clipPath id="clip0_321_2319">
<rect width="529" height="367" fill="white"/>
</clipPath>
</defs>
</svg>
