<svg width="400" height="400" viewBox="0 0 400 400" fill="none" xmlns="http://www.w3.org/2000/svg">
<path d="M280.795 235.101C278.576 230.058 276.358 224.612 274.139 218.965C261.634 185.281 248.321 149.781 234.001 112.265C232.387 108.231 229.16 106.012 224.723 106.012C218.47 105.811 203.947 106.012 181.357 106.214C170.263 106.416 164.212 107.626 159.977 118.72C146.059 155.429 131.537 194.559 116.611 236.109C115.199 239.941 113.787 239.941 112.577 236.109C99.4667 196.172 86.7596 155.832 74.4558 115.089C72.4388 108.635 67.7997 105.609 60.5385 105.811C41.377 106.416 22.2155 106.416 3.05397 105.811C1.44037 105.811 0.431867 106.618 0.230167 108.231C-0.374934 112.265 0.230167 117.308 1.84377 121.14C20.4002 170.758 40.9736 226.024 63.564 287.139C65.3793 291.778 68.6065 294.199 73.4473 294.199C100.072 294.199 126.898 294.199 154.127 294.199C158.767 294.199 161.792 291.98 163.406 287.543C175.104 252.85 186.601 219.57 197.695 188.104C198.501 185.886 199.308 185.886 200.115 188.104C211.41 221.587 222.504 254.867 233.597 287.744C235.009 291.98 238.035 294.199 242.472 294.199C270.71 294.199 298.746 294.199 326.985 294.199C333.237 294.199 334.851 287.946 336.464 283.509C356.836 228.243 377.611 172.573 398.588 116.904C399.597 114.484 400 112.063 400 109.643C400 107.424 398.991 106.416 396.974 106.416H333.036C329.203 106.416 325.976 108.836 324.766 112.265L284.224 235.302C283.014 237.521 282.005 237.723 280.795 235.101Z" fill="#E96137"/>
</svg>
